<?xml version="1.0" encoding="UTF-8" standalone="no"?><!DOCTYPE svg PUBLIC "-//W3C//DTD SVG 1.1//EN" "http://www.w3.org/Graphics/SVG/1.1/DTD/svg11.dtd"><svg width="100%" height="100%" viewBox="0 0 227 227" version="1.1" xmlns="http://www.w3.org/2000/svg" xmlns:xlink="http://www.w3.org/1999/xlink" xml:space="preserve" xmlns:serif="http://www.serif.com/" style="fill-rule:evenodd;clip-rule:evenodd;stroke-linejoin:round;stroke-miterlimit:2;"><g><circle cx="112.9" cy="113.854" r="112.574" style="fill:#0d0b10;"/><g><g><path d="M39.64,38.879l147.013,0c0.446,0 0.807,0.362 0.807,0.807l-0,147.187c-0,0.446 -0.361,0.807 -0.807,0.807l-147.013,0c-0.445,0 -0.806,-0.361 -0.806,-0.807l-0,-147.187c-0,-0.445 0.361,-0.807 0.806,-0.807Zm17.273,41.494c-2.926,4.062 -4.047,7.756 -4.057,10.98c-0.014,4.964 2.601,8.78 5.102,11.028c1.051,0.944 2.079,1.61 2.881,1.954c0.365,0.157 0.646,0.273 0.829,0.231c0.257,-0.06 0.533,-0.229 0.811,-0.421c0.537,-0.371 1.06,-0.849 1.45,-1.168c4.014,-3.284 8.493,-6.069 11.84,-10.16c1.54,-1.882 3.086,-4.032 4.87,-5.976c-6.304,-0.813 -11.964,-1.909 -17.872,-3.879c-1.959,-0.653 -3.707,-1.793 -5.854,-2.589Zm35.464,47.61c-0.796,0.984 -1.437,2.266 -1.977,3.64c-0.837,2.131 -1.421,4.487 -1.891,6.413c1.735,-0.422 4.106,-1.17 6.18,-2.035c1.494,-0.624 2.835,-1.296 3.625,-1.962c-0.055,-0.213 -0.186,-0.442 -0.345,-0.691c-0.315,-0.494 -0.769,-1.02 -1.288,-1.552c-1.377,-1.412 -3.192,-2.848 -4.304,-3.813Zm20.689,-7.906c1.428,-1.267 5.541,-5.433 6.671,-6.813c-0.215,-0.285 -0.644,-0.83 -1.09,-1.286c-1.625,-1.665 -4.215,-3.902 -5.585,-5.133c-1.067,1.259 -2.302,2.322 -3.514,3.38c-1.172,1.022 -2.323,2.036 -3.242,3.252c1.314,1.393 4.701,4.81 6.379,6.283c0.127,0.112 0.263,0.223 0.381,0.317Zm19.879,-67.333l-0.006,-0c-3.166,0.175 -6.372,2.586 -8.038,4.621c-0.599,0.734 -1.539,1.677 -2.252,2.668c-0.403,0.56 -0.74,1.128 -0.831,1.68c-0.011,0.065 0.022,0.136 0.051,0.218c0.064,0.182 0.167,0.377 0.286,0.574c0.429,0.709 1.069,1.437 1.382,1.82c3.766,4.603 7.128,9.025 11.787,12.838c1.339,1.095 2.851,2.008 4.358,3.099c0.353,-7.359 3.039,-16.703 6.767,-22.735c-0.978,-0.511 -1.713,-1.09 -2.435,-1.674c-1.929,-1.562 -3.785,-3.107 -11.069,-3.109Zm-19.695,120.194c1.031,-3.039 2.582,-7.148 2.984,-8.213l0.039,-0.106c-0.093,-1.419 -1.482,-7.073 -1.482,-10.036c-0,-2.87 1.002,-8.381 2.631,-13.096c0.948,-2.744 2.121,-5.216 3.41,-6.789c-1.517,-1.078 -2.769,-2.46 -3.994,-3.861c-1.179,-1.348 -2.332,-2.713 -3.729,-3.78c-1.421,1.573 -4.415,4.241 -6.312,6.112c-0.692,0.681 -1.372,1.504 -1.455,1.605c-0.013,0.1 0.045,0.174 0.11,0.279c0.133,0.215 0.323,0.463 0.555,0.79c0.944,1.33 2.566,3.858 4.159,10.231c1.971,7.882 0.994,12.517 0.301,15.618c-0.27,1.206 -0.508,2.154 -0.453,2.971c0.072,1.094 0.996,2.828 1.869,4.767c0.511,1.134 1.009,2.329 1.367,3.508Zm-56.218,-26.59c0.028,-0.002 0.149,-0.011 0.225,-0.03c0.237,-0.058 0.502,-0.172 0.777,-0.31c1.017,-0.506 2.142,-1.303 2.71,-1.547c5.166,-2.214 10.571,-3.795 16.173,-4.418c1.068,-0.119 2.236,-0.116 3.423,-0.2c-4.145,-5.556 -8.651,-10.182 -13.855,-14.441c-1.486,-1.215 -3.428,-1.99 -5.112,-3.249c-1.422,0.578 -2.649,1.725 -3.528,2.444c-6.963,5.697 -5.776,13.563 -3.515,18.193c0.903,1.85 1.936,3.194 2.702,3.558Zm14.571,-26.565c-1.463,0.126 -2.71,0.356 -3.981,0.646c1.276,0.99 2.581,1.763 3.717,2.693c4.362,3.569 8.105,7.488 11.664,11.839c0.282,0.344 0.657,0.757 1.019,1.212c0.64,-1.418 0.993,-3.21 1.498,-5.039c0.624,-2.262 1.456,-4.575 3.106,-6.444c-5.719,-3.769 -11.155,-3.465 -17.023,-4.907Zm-15.954,-5.738c1.102,0.346 2.182,0.908 3.21,1.452c1.116,0.592 2.155,1.176 3.092,1.276c0.252,-0.063 2.15,-0.534 4.332,-0.886c6.08,-0.981 17.054,-1.512 25.644,5.492c1.593,-1.594 6.149,-6.251 7.751,-8.002c-3.064,-2.06 -5.604,-5.141 -8.054,-7.765c-9.045,4.652 -16.057,7.085 -26.204,5.294c-0.6,-0.106 -1.251,-0.343 -1.902,-0.549c-0.516,-0.163 -1.03,-0.312 -1.51,-0.28c-1.521,0.101 -3.29,1.1 -5.156,2.043c-0.822,0.415 -1.659,0.822 -2.5,1.162l0.71,0.178c0.296,0.074 0.516,0.304 0.587,0.585Zm12.224,-69.524c1.387,0.851 2.613,1.911 3.761,3.062c1.817,1.822 3.431,3.875 5.223,5.623c1.825,-1.123 3.258,-2.365 4.947,-3.275c6.86,-3.693 15.058,-3.028 21.09,1.907c1.558,1.274 2.577,2.938 3.963,4.518c2.018,-3.856 2.242,-7.521 3.17,-11.664c-14.211,-0.006 -28.074,-0.147 -42.154,-0.171Zm34.617,86.248c0.641,-0.534 2.45,-2.063 3.813,-3.438c1.387,-1.398 2.921,-3.222 3.43,-3.836c-0.104,-0.137 -0.241,-0.31 -0.379,-0.47c-1.499,-1.73 -4.987,-5.191 -6.374,-6.372c-1.454,1.136 -4.287,3.834 -6.098,5.955c-0.557,0.652 -1.024,1.231 -1.289,1.679c1.806,1.415 5.574,5.271 6.897,6.482Zm-15.774,15.553c-0.635,7.209 -2.453,13.765 -5.136,20.025c-0.236,0.551 -0.946,1.507 -1.422,2.393c-0.127,0.236 -0.235,0.465 -0.299,0.676c-0.027,0.089 -0.063,0.167 -0.045,0.234c0.058,0.214 0.276,0.457 0.572,0.742c0.603,0.581 1.538,1.225 2.701,1.814c4.605,2.335 12.759,3.804 18.479,-3.187c0.967,-1.181 2.099,-2.541 2.59,-4.015c0.108,-0.324 -0.109,-0.674 -0.324,-1.023c-0.331,-0.536 -0.78,-1.035 -1.076,-1.397c-0.953,-1.165 -1.601,-2.579 -2.554,-3.745c-3.798,-4.64 -8.378,-8.949 -13.486,-12.517Zm82.398,-66.056c-2.601,0.86 -12.126,6.26 -23.079,6.745c4.58,6.235 9.832,12.573 16.463,16.143c0.406,0.218 0.877,0.602 1.368,0.904c0.286,0.176 0.565,0.363 0.852,0.298c2.256,-0.521 4.231,-2.213 5.752,-4.364c2.334,-3.304 3.607,-7.716 3.033,-10.969c-0.418,-2.372 -1.544,-4.381 -2.664,-6.461c-0.223,-0.415 -0.589,-1.143 -1.08,-1.724c-0.195,-0.231 -0.406,-0.446 -0.645,-0.572Zm12.879,78.49c-0.022,-14.224 -0.166,-28.144 -0.171,-42.307l-0.064,0c-5.668,0.153 -8.313,1.904 -11.6,3.026c6.824,5.69 10.606,13.007 7.6,22.027c-0.355,1.064 -3.409,6.277 -4.321,7.89c0.858,0.871 3.121,2.706 3.548,3.134c1.692,1.692 3.646,3.835 5.008,6.23Zm-16.731,-82.002c-0.214,-0.254 -0.598,-0.441 -1.007,-0.63c-1.084,-0.503 -2.437,-0.838 -3.122,-1.132c-2.369,-1.015 -5.08,-0.547 -7.908,-0.547c-0.445,0 -0.806,-0.361 -0.806,-0.806c-0,-4.432 0.037,-7.541 -1.917,-11.169c-0.203,-0.378 -0.383,-0.901 -0.724,-1.34c-1.427,1.807 -2.431,5.046 -3.211,8.472c-1.097,4.826 -1.698,10.036 -2.104,12.567c1.861,-0.403 3.748,-0.527 5.795,-0.721c3.602,-0.339 7.721,-0.912 13.138,-3.829c0.347,-0.186 0.817,-0.354 1.264,-0.55c0.218,-0.096 0.435,-0.189 0.602,-0.315Zm-2.242,-32.885l-0.011,-0.153l-0.142,0.037l0.027,0.161l0.126,-0.045Zm-16.819,125.757c-0.009,-0.03 -0.034,-0.12 -0.053,-0.164c-3.308,-7.719 -5.507,-14.893 -6.38,-23.39c-3.429,2.359 -10.316,8.58 -14.526,13.465c-1.19,1.381 -2.164,2.651 -2.773,3.696c-0.344,0.588 -0.573,1.083 -0.608,1.469c-0.012,0.127 0.045,0.285 0.117,0.47c0.111,0.29 0.28,0.614 0.484,0.959c1.024,1.726 2.918,3.895 3.709,4.542c6.202,5.075 13.377,3.531 17.319,1.311c0.978,-0.552 1.754,-1.141 2.251,-1.683c0.231,-0.251 0.401,-0.475 0.46,-0.675Zm-64.398,-25.174l-0.5,-0c-3.292,0.105 -8.901,1.005 -13.712,2.493c-2.596,0.802 -4.962,1.767 -6.566,2.885c3.925,2.098 7.609,2.634 12.218,2.634c0.232,0 0.453,0.1 0.606,0.275c0.153,0.174 0.224,0.406 0.194,0.635c-0.257,1.982 -0.155,5.592 0.63,8.606c0.385,1.481 0.917,2.825 1.693,3.697c3.149,-5.528 4.05,-10.704 4.561,-14.885c0.304,-2.495 0.481,-4.649 0.876,-6.34Zm44.916,-31.053c0.918,1.038 3.519,3.405 3.974,3.861c0.571,0.571 2.935,3.292 3.903,3.894c0.337,-0.068 0.731,-0.278 1.143,-0.516c0.894,-0.515 1.827,-1.202 2.455,-1.54c2.848,-1.534 6.271,-2.103 9.316,-3.118c4.465,-1.489 9.019,-0.899 12.384,-0.208c2.065,0.424 3.638,0.909 4.383,0.852c1.155,-0.09 3.036,-1.045 5.144,-1.95c1.107,-0.476 2.271,-0.941 3.426,-1.296c-1.801,-0.523 -3.658,-1.293 -5.255,-1.973c-1.038,-0.441 -1.959,-0.839 -2.673,-1.086c-0.375,-0.129 -0.672,-0.223 -0.878,-0.223c-1.608,-0 -6.189,1.316 -8.761,1.451c-5.171,0.272 -16.19,-2.31 -21.02,-5.819c-1.606,1.76 -5.505,5.41 -7.16,7.223c-0.138,0.152 -0.274,0.315 -0.381,0.448Zm-2.974,17.471c0.084,-0.065 0.183,-0.143 0.272,-0.222c0.602,-0.542 1.534,-1.511 3.086,-3.062c0.997,-0.998 2.495,-2.023 3.527,-3.281c-1.554,-1.538 -5.689,-5.757 -7.421,-7.461c-1.603,1.985 -3.15,3.277 -4.37,4.266c-0.597,0.483 -1.112,0.888 -1.505,1.27c-0.296,0.286 -0.522,0.539 -0.612,0.826c-0.129,0.408 0.076,0.831 0.525,1.45c0.625,0.862 1.71,1.951 3.359,3.441c1.6,0.82 2.366,1.703 2.838,2.352c0.102,0.141 0.213,0.297 0.301,0.421Zm14.139,-29.245c0.016,0.029 0.041,0.058 0.066,0.091c0.097,0.127 0.233,0.256 0.399,0.391c0.629,0.509 1.635,1.044 2.882,1.568c4.582,1.927 12.345,3.651 17.347,2.653c-4.228,-3.66 -8.8,-6.489 -12.277,-10.739c-0.761,-0.93 -1.767,-2.583 -2.821,-4.006c-0.332,-0.447 -0.667,-0.872 -0.998,-1.235c-1.375,4.893 -4.282,10.079 -4.598,11.277Zm-32.789,-9.512c0.875,1.005 3.946,3.494 4.509,4.057c0.468,0.469 3.079,2.948 3.702,3.54c0.175,-0.139 0.443,-0.359 0.655,-0.564c1.215,-1.175 2.895,-3.142 3.428,-3.676c0.482,-0.481 3.029,-2.468 3.808,-3.353c-0.086,-0.204 -0.235,-0.546 -0.383,-0.834c-0.776,-1.508 -2.147,-3.779 -2.462,-4.363c-1.132,-2.102 -1.895,-4.591 -2.47,-6.89c-1.742,-6.965 -0.674,-11.666 0.048,-14.886c0.28,-1.25 0.518,-2.251 0.455,-3.064c-0.054,-0.699 -0.631,-1.894 -1.295,-3.323c-0.66,-1.418 -1.414,-3.035 -1.971,-4.625c-0.568,1.563 -1.32,3.176 -1.974,4.594c-0.667,1.446 -1.244,2.654 -1.289,3.328c-0.049,0.723 0.171,1.512 0.424,2.571c0.659,2.757 1.633,7.139 0.073,15.98c-0.471,2.669 -1.662,5.348 -2.937,7.715c-0.29,0.538 -1.423,2.14 -2.059,3.264c-0.098,0.173 -0.197,0.384 -0.262,0.529Zm14.869,66.417c3.925,-5.713 10.465,-11.028 14.485,-14.223c0.913,-0.726 1.692,-1.328 2.26,-1.791c-2.167,-0.519 -5.114,-1.293 -7.691,-2.248c-1.734,-0.642 -3.3,-1.378 -4.395,-2.163c-1.781,3.73 -3.73,8.296 -4.575,12.808c-0.491,2.62 -0.613,5.221 -0.084,7.617Zm-63.187,-51.299c-7.187,-5.582 -11.37,-12.614 -8.241,-21.999c0.782,-2.346 1.705,-4.618 3.291,-6.556c0.179,-0.218 0.538,-0.559 0.847,-0.919c0.121,-0.142 0.271,-0.382 0.323,-0.467c-0.019,-0.031 -0.05,-0.061 -0.078,-0.098c-0.113,-0.152 -0.269,-0.305 -0.442,-0.458c-0.644,-0.571 -1.505,-1.112 -1.884,-1.421c-2.65,-2.168 -4.325,-4.952 -6.121,-7.839l0,42.576c2.167,-0.464 5.031,-0.586 6.754,-0.89c1.896,-0.334 3.617,-1.255 5.551,-1.929Zm32.868,-22.922c3.521,0.99 6.598,1.815 9.655,3.461c0.344,0.185 1.006,0.661 1.619,0.974c0.177,0.091 0.457,0.181 0.527,0.203c0.175,-0.069 0.332,-0.253 0.511,-0.481c0.452,-0.578 0.894,-1.459 1.321,-2.507c1.759,-4.307 3.192,-11.342 3.287,-13.15c0.083,-1.565 -0.311,-3.062 -0.542,-4.686c-3.988,6.098 -9.452,10.868 -14.732,15.188c-0.435,0.356 -1.042,0.655 -1.646,0.998Zm30.322,-16.422c-1.156,5.732 0.488,11.001 2.23,15.081c1.072,2.513 2.181,4.598 2.772,6.096c3.603,-2.108 7.209,-3.944 11.179,-5.126c-1.116,-0.881 -2.232,-1.58 -3.227,-2.395c-4.622,-3.781 -8.274,-7.927 -12.033,-12.521c-0.263,-0.322 -0.592,-0.711 -0.921,-1.135Zm49.875,39.419c3.09,1.595 8.691,2.645 12.047,2.788c0.359,-5.644 0.261,-32.484 -0.088,-42.007c-1.679,2.669 -3.736,4.867 -5.779,6.909c-0.395,0.397 -1.046,0.836 -1.634,1.315c-0.357,0.291 -0.713,0.575 -0.861,0.905c0.568,1.37 3.541,6.334 3.916,7.456c2.573,7.72 0.407,16.104 -5.926,21.286c-0.442,0.362 -1.009,0.918 -1.675,1.348Zm-71.511,-14.148c-0.037,-0.053 -0.114,-0.162 -0.18,-0.23c-0.169,-0.174 -0.392,-0.352 -0.648,-0.534c-1.701,-1.2 -4.788,-2.448 -5.578,-2.711c-1.114,-0.372 -2.344,-0.388 -3.639,-0.615c0.431,1.847 1.214,4.315 2.127,6.46c0.586,1.376 1.217,2.62 1.85,3.45c1.283,-0.979 3.536,-2.87 4.963,-4.396c0.403,-0.43 0.739,-0.828 0.954,-1.163c0.064,-0.1 0.121,-0.185 0.151,-0.261Zm-9.854,8.983c-0.393,-1.158 -2.431,-4.431 -2.698,-5.233c-0.603,-1.81 -0.896,-4.031 -1.634,-6.004c-0.534,0.711 -1.265,1.577 -2.119,2.52c-3.442,3.801 -8.87,8.988 -10.338,10.189c-1.032,0.845 -2.493,1.578 -3.772,2.467c4.94,0.678 12.333,-0.434 16.928,-2.018c1.272,-0.438 2.324,-0.908 3.029,-1.395c0.264,-0.183 0.478,-0.351 0.604,-0.526Zm64.164,67.953c0.118,0.36 0.429,0.741 0.776,1.13c0.761,0.853 1.764,1.676 2.304,2.216c7.936,7.936 15.317,8.575 26.275,8.601c-0.007,-9.147 -0.213,-16.172 -6.065,-23.324c-0.94,-1.149 -1.839,-2.47 -3.002,-3.422c-0.931,-0.762 -2.397,-1.409 -3.524,-2.279c-4.029,2.211 -7.204,4.328 -11.89,4.544c-0.11,2.591 -0.757,5.14 -1.795,7.066c-0.347,0.645 -2.603,4.372 -3.079,5.468Zm-108.1,-11.597c0.538,-0.858 1.171,-1.691 1.856,-2.49c2.254,-2.628 5.077,-4.892 6.756,-6.534c-1.94,-3.2 -3.829,-5.676 -4.95,-9.038c-1.093,-3.281 -0.593,-8.095 1.109,-12.431c1.399,-3.565 3.607,-6.788 6.327,-8.609c-0.736,-0.224 -1.451,-0.465 -2.236,-0.707c-0.161,-0.05 -0.303,-0.149 -0.405,-0.283c-0.093,-0.124 -0.148,-0.219 -0.184,-0.294l-0.017,-0.059c-2.827,-0.587 -5.306,-1.607 -8.225,-1.759c-0.562,7.074 0.073,30.736 -0.021,41.333c-0.003,0.3 -0.006,0.591 -0.01,0.871Zm115.434,23.72c-0.579,-0.307 -1.06,-0.515 -1.537,-0.735c-1.513,-0.696 -2.994,-1.487 -7.008,-5.502c-0.372,-0.372 -0.993,-1.239 -1.618,-1.89c-0.169,-0.176 -0.337,-0.335 -0.5,-0.451c-0.033,-0.024 -0.063,-0.05 -0.091,-0.07c-0.206,0.104 -0.787,0.405 -1.275,0.703c-2.022,1.236 -5.172,3.372 -6.279,3.741c-7.797,2.599 -15.885,0.502 -21.128,-5.907c-0.378,-0.462 -0.885,-1.012 -1.362,-1.61c-1.492,4.601 -2.12,6.686 -2.978,11.721l43.776,0Zm-103.668,-108.331l0.019,-0.01c1.434,-0.74 8.054,-4.251 12.276,-4.677c0.148,-3.582 1.322,-6.585 2.829,-9.384c0.312,-0.579 1.151,-1.427 1.763,-2.238c0.161,-0.213 0.303,-0.422 0.4,-0.622c0.046,-0.097 0.094,-0.183 0.088,-0.266c-0.028,-0.364 -0.335,-0.782 -0.682,-1.22c-0.675,-0.85 -1.593,-1.69 -2.077,-2.174c-7.808,-7.808 -15.62,-8.736 -26.45,-8.776c0.016,10.615 0.447,19.836 8.891,26.745c0.558,0.457 1.288,1.359 2.056,2.03c0.3,0.262 0.593,0.503 0.887,0.592Zm39.377,28.498c0.024,0.046 0.05,0.092 0.076,0.135c0.24,0.383 0.615,0.864 1.071,1.402c1.75,2.063 4.663,4.895 6.048,6.061c1.09,-1.219 2.373,-2.251 3.636,-3.296c1.178,-0.974 2.337,-1.959 3.263,-3.155c-1.401,-1.222 -2.6,-2.667 -3.817,-4.09c-1.139,-1.332 -2.293,-2.644 -3.678,-3.695c-2.048,2.547 -4.406,4.414 -6.599,6.638Zm38.018,25.157c-1.117,0.655 -2.177,1.875 -3.187,3.145c-0.924,1.161 -1.802,2.37 -2.619,3.318c3.228,1.851 6.443,3.28 10.033,4.054c-0.543,-2.04 -1.138,-4.463 -1.992,-6.629c-0.593,-1.503 -1.305,-2.884 -2.235,-3.888Zm-3.084,-24.838c-0.217,-0.261 -0.661,-0.783 -1.131,-1.261c-1.716,-1.747 -4.495,-4.276 -5.757,-5.438c-2.214,1.521 -5.876,5.377 -7.461,7.513c1.586,1.779 4.981,5.009 6.843,6.403c1.363,-1.067 4.462,-3.811 6.317,-5.772c0.488,-0.516 0.977,-1.158 1.189,-1.445Zm28.247,-57.793c-3.558,0.015 -7.863,-0.392 -10.359,-0.392c-10.928,0.17 -21.439,0.175 -32.264,0.175c0.147,4.394 1.484,7.803 2.978,11.511c4.621,-7.329 14.138,-10.252 21.922,-7.658c1.595,0.532 6.633,3.757 8.128,4.72c0.055,-0.061 0.114,-0.129 0.153,-0.183c0.181,-0.25 0.352,-0.499 0.519,-0.667c2.828,-2.827 5.478,-5.518 8.923,-7.506Zm6.766,104.936c-5.067,-3.224 -15.069,-5.172 -21.18,-5.377c0.808,3.833 0.959,9.355 2.399,13.675c0.783,2.348 1.891,4.564 2.941,6.905c1.406,-2.586 2.089,-3.194 2.408,-4.081c0.368,-1.017 0.22,-2.404 0.22,-7.697c-0,-0.445 0.361,-0.807 0.806,-0.807c2.386,0 5.61,-0.064 8.431,-0.78c1.52,-0.385 2.923,-0.956 3.975,-1.838Zm-1.133,-27.575c-5.443,2.543 -12.564,9.806 -16.074,14.097c-0.839,1.024 -1.615,2.317 -2.536,3.509c8.554,1.05 13.878,1.735 21.891,5.742c0.256,0.128 0.528,0.163 0.815,0.238c0.252,0.065 0.513,0.147 0.786,0.277c0.731,-0.8 1.262,-1.804 1.726,-2.499c3.322,-4.983 2.929,-11.027 0.416,-15.483c-1.606,-2.848 -4.081,-5.054 -7.024,-5.881Zm-11.963,-65.773c0.828,1.402 4.573,7.976 4.964,12.847c4.871,0.17 8.519,1.937 12.401,4.469c0.519,-0.516 1.083,-0.951 1.635,-1.37c0.633,-0.48 1.25,-0.932 1.718,-1.504c8.138,-9.946 8.722,-13.492 8.743,-26.422l-2.337,-0c-11.671,0.171 -15.301,1.636 -23.753,8.55c-0.597,0.489 -1.726,1.352 -2.559,2.266c-0.365,0.399 -0.691,0.791 -0.812,1.164Zm-75.961,4.533c-0.799,1.06 -1.403,2.508 -1.842,4.067c-0.832,2.955 -1.054,6.318 -0.694,8.404c0.043,0.25 -0.034,0.506 -0.209,0.691c-0.174,0.184 -0.425,0.276 -0.677,0.247c-4.369,-0.5 -8.675,-0.047 -12.058,2.62c3.316,2.071 7.667,3.079 11.653,3.709c3.588,0.566 6.898,0.832 9.001,1.221c-1.187,-5.159 -0.52,-9.987 -4.521,-19.322c-0.139,-0.325 -0.282,-0.82 -0.493,-1.302c-0.05,-0.113 -0.102,-0.226 -0.16,-0.335Zm51.206,31.822l0.009,0.019c0.188,0.338 0.469,0.732 0.806,1.156c1.364,1.719 3.63,3.902 4.939,4.993c1.144,-2.036 2.496,-3.737 3.175,-5.773c0.433,-1.301 0.579,-2.908 0.865,-4.395c-3.02,0.956 -5.703,1.69 -8.294,3.085c-0.438,0.236 -0.912,0.623 -1.5,0.915Zm-21.774,66.113c1.156,-6.767 -0.508,-13.31 -3.58,-19.017c-0.183,-0.338 -0.418,-0.934 -0.744,-1.484c-0.165,-0.279 -0.343,-0.565 -0.574,-0.737c-2.391,1.384 -4.399,2.743 -6.713,3.514c-1.373,0.458 -3.021,0.765 -4.622,1.266c5.181,4.048 9.919,8.067 13.97,13.017c0.798,0.977 1.433,2.273 2.263,3.441Zm-38.681,23.251l42.593,0c-0.721,-4.375 -1.197,-8.313 -2.933,-12.274c-0.684,1.05 -1.502,1.873 -2.14,2.653c-4.93,6.025 -12.857,7.999 -20.184,5.557c-1.189,-0.396 -6.294,-3.62 -7.85,-4.413c-0.199,0.173 -0.545,0.481 -0.824,0.771c-1.439,1.494 -3.523,3.995 -4.246,4.586c-1.345,1.101 -2.794,2.205 -4.416,3.12Zm-10.927,-29.3c-10.486,6.726 -11.853,17.744 -11.923,29.103c2.176,-0.349 5.121,-0.152 8.448,-0.298c5.532,-0.243 12.181,-1.526 17.945,-8.573c0.459,-0.559 1.399,-1.341 2.104,-2.145c0.337,-0.385 0.643,-0.752 0.675,-1.11c0.005,-0.043 -0.025,-0.087 -0.046,-0.139c-0.059,-0.145 -0.148,-0.299 -0.25,-0.455c-0.391,-0.603 -0.951,-1.226 -1.199,-1.598c-1.858,-2.788 -3.203,-6.268 -3.372,-9.967c-3.768,-0.164 -6.142,-1.5 -8.326,-2.808c-1.321,-0.791 -2.563,-1.575 -4.056,-2.01Zm96.504,-32.618l-0.005,0c-1.917,0.131 -8.492,1.294 -12.423,2.862c-0.798,0.318 -1.481,0.649 -1.979,0.996c-0.317,0.221 -0.572,0.399 -0.611,0.631c-0.011,0.068 0.017,0.138 0.043,0.214c0.056,0.166 0.146,0.335 0.244,0.502c0.26,0.441 0.577,0.867 0.748,1.185c1.553,2.884 2.589,6.082 3.813,9.273c2.437,-3.407 7.502,-8.983 11.814,-12.773c1.24,-1.09 2.421,-2.032 3.466,-2.743c-1.69,-0.177 -3.321,-0.147 -5.11,-0.147Zm-63.524,-67.731l-0.003,0c-1.497,0.141 -5.771,1.802 -8.169,3.418c-0.478,0.321 -0.878,0.637 -1.149,0.943c-0.083,0.091 -0.151,0.18 -0.201,0.268c-0.022,0.039 -0.053,0.068 -0.051,0.103c0.028,0.359 0.439,1.091 0.903,1.944c0.829,1.524 1.897,3.333 2.209,4.269c1.706,5.118 3.447,10.959 3.702,16.749c6.429,-4.076 12.301,-9.418 15.789,-15.896c0.255,-0.473 0.686,-0.988 1.067,-1.518c0.266,-0.372 0.528,-0.742 0.554,-1.129c0.033,-0.492 -0.12,-1.027 -0.397,-1.583c-0.484,-0.972 -1.345,-1.986 -2.455,-2.949c-2.869,-2.487 -7.396,-4.608 -11.799,-4.619Zm-35.195,65.541l-0.006,0.011l0.008,-0.01l-0.002,-0.001Zm108.843,-74.374l0,-0.024l-0.003,0.001l0.003,0.023Z" style="fill:#8e38e6;"/></g></g></g></svg>