<?xml version="1.0" encoding="UTF-8" standalone="no"?>
<!DOCTYPE svg PUBLIC "-//W3C//DTD SVG 1.1//EN" "http://www.w3.org/Graphics/SVG/1.1/DTD/svg11.dtd">
<svg width="100%" height="100%" viewBox="0 0 690 227" version="1.1" xmlns="http://www.w3.org/2000/svg" xmlns:xlink="http://www.w3.org/1999/xlink" xml:space="preserve" xmlns:serif="http://www.serif.com/" style="fill-rule:evenodd;clip-rule:evenodd;stroke-linejoin:round;stroke-miterlimit:2;">
    <g transform="matrix(1,0,0,1,-89.6439,-86.7202)">
        <g transform="matrix(0.803437,0,0,0.976966,0,0)">
            <g transform="matrix(1.32353,0,0,0.903838,29.5263,30.1625)">
                <path d="M63.147,64.837L273.645,64.837C274.283,64.837 274.8,65.46 274.8,66.228L274.8,320.02C274.8,320.788 274.283,321.411 273.645,321.411L63.147,321.411C62.51,321.411 61.993,320.788 61.993,320.02L61.993,66.228C61.993,65.46 62.51,64.837 63.147,64.837ZM87.879,136.383C83.689,143.387 82.084,149.757 82.07,155.317C82.05,163.875 85.795,170.456 89.376,174.331C90.88,175.959 92.352,177.107 93.5,177.701C94.023,177.971 94.426,178.171 94.688,178.099C95.056,177.996 95.451,177.705 95.848,177.374C96.617,176.734 97.367,175.91 97.925,175.36C103.672,169.697 110.086,164.894 114.878,157.841C117.083,154.596 119.296,150.889 121.851,147.536C112.825,146.135 104.72,144.244 96.261,140.848C93.456,139.722 90.953,137.757 87.879,136.383ZM138.657,218.477C137.518,220.173 136.6,222.383 135.827,224.753C134.629,228.427 133.792,232.49 133.119,235.811C135.604,235.083 138.998,233.794 141.968,232.301C144.107,231.226 146.027,230.068 147.159,228.919C147.079,228.552 146.892,228.157 146.664,227.727C146.214,226.876 145.563,225.969 144.82,225.051C142.848,222.617 140.25,220.14 138.657,218.477ZM168.28,204.844C170.326,202.66 176.215,195.477 177.833,193.097C177.524,192.606 176.91,191.666 176.272,190.879C173.945,188.009 170.236,184.151 168.275,182.029C166.747,184.199 164.979,186.033 163.243,187.857C161.565,189.619 159.917,191.368 158.602,193.464C160.483,195.866 165.333,201.758 167.735,204.298C167.917,204.491 168.112,204.683 168.28,204.844ZM196.744,88.743L196.735,88.743C192.202,89.045 187.612,93.203 185.227,96.712C184.369,97.977 183.023,99.604 182.002,101.312C181.425,102.277 180.943,103.257 180.812,104.208C180.796,104.32 180.844,104.444 180.885,104.585C180.977,104.899 181.124,105.234 181.295,105.574C181.909,106.797 182.825,108.053 183.273,108.712C188.666,116.65 193.48,124.275 200.151,130.848C202.068,132.737 204.232,134.312 206.39,136.192C206.896,123.503 210.742,107.392 216.079,96.991C214.679,96.11 213.627,95.111 212.593,94.104C209.831,91.412 207.174,88.748 196.744,88.743ZM168.544,295.991C170.02,290.751 172.241,283.666 172.816,281.83L172.873,281.648C172.739,279.201 170.75,269.452 170.75,264.343C170.75,259.394 172.185,249.891 174.518,241.761C175.875,237.029 177.554,232.768 179.4,230.055C177.228,228.197 175.436,225.813 173.681,223.397C171.994,221.074 170.343,218.719 168.342,216.88C166.307,219.592 162.021,224.193 159.305,227.418C158.314,228.593 157.34,230.012 157.221,230.186C157.203,230.358 157.285,230.487 157.378,230.667C157.569,231.038 157.841,231.465 158.174,232.03C159.525,234.322 161.847,238.681 164.129,249.671C166.95,263.262 165.552,271.254 164.559,276.601C164.173,278.68 163.832,280.314 163.91,281.723C164.014,283.609 165.337,286.599 166.587,289.943C167.318,291.898 168.032,293.958 168.544,295.991ZM88.05,250.143C88.089,250.14 88.263,250.124 88.372,250.092C88.711,249.991 89.09,249.794 89.484,249.557C90.94,248.684 92.551,247.31 93.365,246.89C100.761,243.072 108.501,240.345 116.521,239.271C118.05,239.067 119.723,239.071 121.423,238.926C115.487,229.346 109.036,221.37 101.584,214.027C99.457,211.931 96.676,210.595 94.265,208.424C92.229,209.42 90.472,211.398 89.213,212.639C79.244,222.461 80.943,236.025 84.18,244.008C85.473,247.197 86.953,249.515 88.05,250.143ZM108.912,204.337C106.818,204.554 105.032,204.951 103.212,205.452C105.039,207.159 106.908,208.491 108.534,210.094C114.78,216.248 120.139,223.007 125.236,230.509C125.639,231.102 126.176,231.814 126.695,232.598C127.611,230.153 128.116,227.064 128.839,223.91C129.733,220.009 130.924,216.021 133.287,212.798C125.098,206.299 117.314,206.824 108.912,204.337ZM86.069,194.443C87.647,195.04 89.194,196.009 90.665,196.947C92.264,197.968 93.751,198.975 95.093,199.148C95.454,199.038 98.171,198.226 101.296,197.619C110.001,195.929 125.714,195.013 138.013,207.089C140.294,204.341 146.818,196.311 149.112,193.291C144.724,189.74 141.088,184.427 137.58,179.903C124.629,187.924 114.588,192.119 100.059,189.031C99.201,188.849 98.269,188.439 97.337,188.085C96.598,187.804 95.861,187.546 95.175,187.601C92.996,187.776 90.463,189.499 87.792,191.124C86.615,191.84 85.416,192.541 84.212,193.128L85.229,193.435C85.652,193.562 85.967,193.959 86.069,194.443ZM103.572,74.565C105.558,76.033 107.314,77.86 108.957,79.844C111.559,82.986 113.87,86.526 116.435,89.54C119.048,87.604 121.101,85.462 123.519,83.894C133.341,77.525 145.08,78.672 153.716,87.181C155.947,89.379 157.406,92.247 159.391,94.971C162.28,88.323 162.601,82.003 163.93,74.86C143.582,74.849 123.732,74.606 103.572,74.565ZM153.138,223.28C154.056,222.359 156.645,219.724 158.597,217.353C160.583,214.942 162.78,211.796 163.509,210.738C163.359,210.501 163.163,210.203 162.965,209.928C160.82,206.945 155.825,200.977 153.839,198.941C151.757,200.899 147.701,205.551 145.108,209.209C144.311,210.332 143.642,211.331 143.263,212.103C145.848,214.544 151.243,221.192 153.138,223.28ZM130.552,250.098C129.643,262.529 127.04,273.832 123.198,284.627C122.86,285.577 121.844,287.226 121.162,288.753C120.98,289.16 120.825,289.555 120.734,289.918C120.695,290.072 120.644,290.207 120.67,290.322C120.753,290.691 121.064,291.11 121.489,291.602C122.352,292.604 123.691,293.713 125.356,294.729C131.949,298.756 143.625,301.289 151.815,289.234C153.199,287.197 154.82,284.852 155.523,282.311C155.678,281.752 155.367,281.149 155.059,280.547C154.585,279.623 153.942,278.762 153.519,278.139C152.154,276.13 151.226,273.691 149.861,271.681C144.424,263.68 137.866,256.251 130.552,250.098ZM248.532,136.2C244.807,137.682 231.169,146.993 215.487,147.83C222.045,158.58 229.565,169.508 239.059,175.664C239.64,176.041 240.314,176.702 241.018,177.223C241.427,177.526 241.826,177.85 242.237,177.737C245.468,176.838 248.296,173.922 250.473,170.213C253.816,164.516 255.638,156.908 254.816,151.298C254.217,147.208 252.606,143.744 251.002,140.158C250.682,139.442 250.158,138.187 249.456,137.186C249.176,136.787 248.874,136.416 248.532,136.2ZM266.973,271.537C266.941,247.011 266.734,223.009 266.727,198.589L266.644,198.589L266.636,198.589C258.521,198.853 254.733,201.871 250.027,203.807C259.797,213.617 265.213,226.234 260.908,241.787C260.4,243.621 256.027,252.611 254.721,255.391C255.95,256.894 259.19,260.057 259.802,260.795C262.225,263.713 265.022,267.408 266.973,271.537ZM243.017,130.143C242.71,129.706 242.16,129.384 241.575,129.058C240.022,128.19 238.085,127.612 237.105,127.106C233.713,125.356 229.831,126.163 225.782,126.163C225.144,126.163 224.627,125.54 224.627,124.772C224.627,117.13 224.68,111.769 221.883,105.514C221.592,104.863 221.334,103.96 220.846,103.204C218.803,106.319 217.365,111.904 216.249,117.812C214.677,126.133 213.817,135.116 213.236,139.481C215.9,138.786 218.602,138.571 221.533,138.238C226.691,137.652 232.588,136.665 240.345,131.635C240.841,131.314 241.514,131.025 242.155,130.687C242.467,130.522 242.778,130.36 243.017,130.143ZM239.806,73.441L239.79,73.177L239.587,73.24L239.626,73.518L239.806,73.441ZM215.724,290.281C215.712,290.229 215.676,290.073 215.649,289.998C210.912,276.688 207.764,264.318 206.514,249.667C201.604,253.735 191.743,264.461 185.715,272.884C184.011,275.265 182.616,277.456 181.744,279.257C181.252,280.272 180.923,281.124 180.873,281.791C180.856,282.01 180.938,282.281 181.041,282.601C181.2,283.1 181.442,283.66 181.734,284.254C183.2,287.231 185.912,290.971 187.045,292.086C195.925,300.836 206.199,298.174 211.842,294.346C213.243,293.395 214.354,292.379 215.065,291.445C215.396,291.011 215.64,290.626 215.724,290.281ZM122.807,246.873L122.801,246.873C118.088,247.055 110.057,248.606 103.168,251.172C99.451,252.556 96.064,254.219 93.767,256.147C99.387,259.764 104.662,260.689 111.261,260.689C111.593,260.689 111.909,260.861 112.128,261.162C112.348,261.462 112.449,261.862 112.406,262.258C112.039,265.675 112.184,271.899 113.308,277.096C113.86,279.65 114.621,281.968 115.732,283.471C120.241,273.939 121.532,265.014 122.263,257.805C122.699,253.504 122.952,249.79 123.518,246.873L122.807,246.873ZM187.829,193.329C189.144,195.119 192.868,199.201 193.52,199.987C194.337,200.971 197.722,205.663 199.108,206.701C199.59,206.584 200.154,206.222 200.744,205.812C202.025,204.924 203.36,203.739 204.26,203.156C208.337,200.512 213.239,199.53 217.598,197.78C223.992,195.213 230.512,196.23 235.33,197.421C238.287,198.152 240.54,198.988 241.606,198.89C243.26,198.736 245.953,197.089 248.971,195.528C250.557,194.708 252.223,193.906 253.877,193.294C251.298,192.392 248.639,191.064 246.352,189.892C244.867,189.131 243.547,188.445 242.525,188.019C241.989,187.796 241.563,187.634 241.268,187.634C238.966,187.634 232.407,189.904 228.724,190.137C221.32,190.606 205.542,186.153 198.627,180.102C196.328,183.137 190.745,189.431 188.375,192.558C188.178,192.819 187.983,193.101 187.829,193.329ZM183.571,223.454C183.692,223.343 183.833,223.208 183.96,223.071C184.823,222.138 186.157,220.467 188.379,217.792C189.807,216.071 191.952,214.304 193.429,212.135C191.204,209.483 185.284,202.208 182.803,199.27C180.508,202.693 178.294,204.921 176.546,206.626C175.692,207.459 174.955,208.157 174.391,208.815C173.968,209.308 173.645,209.744 173.515,210.24C173.331,210.943 173.624,211.672 174.267,212.74C175.162,214.227 176.716,216.104 179.077,218.673C181.368,220.087 182.465,221.609 183.14,222.729C183.286,222.971 183.445,223.24 183.571,223.454ZM203.816,173.028C203.839,173.078 203.875,173.128 203.91,173.185C204.049,173.404 204.244,173.627 204.482,173.859C205.382,174.736 206.823,175.659 208.608,176.563C215.169,179.885 226.284,182.859 233.446,181.138C227.392,174.826 220.846,169.949 215.867,162.62C214.778,161.017 213.338,158.167 211.828,155.713C211.353,154.942 210.874,154.209 210.399,153.583C208.431,162.021 204.268,170.963 203.816,173.028ZM156.868,156.626C158.121,158.36 162.517,162.651 163.324,163.623C163.994,164.43 167.732,168.705 168.624,169.726C168.875,169.486 169.258,169.107 169.562,168.753C171.302,166.728 173.707,163.336 174.471,162.416C175.16,161.586 178.808,158.16 179.923,156.633C179.8,156.282 179.587,155.693 179.374,155.195C178.263,152.595 176.3,148.68 175.849,147.672C174.229,144.048 173.136,139.757 172.313,135.792C169.819,123.782 171.348,115.677 172.381,110.124C172.782,107.969 173.123,106.243 173.033,104.841C172.956,103.636 172.129,101.575 171.178,99.111C170.234,96.666 169.154,93.878 168.356,91.137C167.543,93.832 166.466,96.614 165.53,99.059C164.575,101.551 163.749,103.635 163.684,104.796C163.615,106.044 163.93,107.404 164.292,109.23C165.235,113.983 166.63,121.54 164.396,136.783C163.722,141.386 162.016,146.006 160.191,150.086C159.776,151.015 158.153,153.777 157.243,155.715C157.103,156.013 156.961,156.377 156.868,156.626ZM178.157,271.148C183.778,261.297 193.141,252.132 198.897,246.624C200.205,245.372 201.32,244.334 202.134,243.536C199.031,242.641 194.811,241.306 191.121,239.659C188.638,238.552 186.396,237.283 184.828,235.929C182.278,242.362 179.488,250.234 178.277,258.015C177.574,262.531 177.4,267.016 178.157,271.148ZM87.684,182.694C77.394,173.07 71.405,160.945 75.885,144.762C77.004,140.717 78.326,136.8 80.597,133.458C80.853,133.081 81.367,132.493 81.809,131.873C81.983,131.628 82.198,131.214 82.272,131.068C82.245,131.014 82.2,130.963 82.161,130.899C81.998,130.637 81.775,130.373 81.527,130.109C80.605,129.125 79.372,128.192 78.83,127.659C75.036,123.921 72.637,119.12 70.066,114.142L70.066,187.555C73.169,186.755 77.269,186.545 79.736,186.021C82.451,185.444 84.915,183.856 87.684,182.694ZM134.746,143.171C139.787,144.877 144.193,146.3 148.57,149.138C149.062,149.457 150.01,150.278 150.888,150.818C151.142,150.974 151.542,151.129 151.643,151.168C151.894,151.049 152.118,150.732 152.374,150.338C153.022,149.341 153.654,147.822 154.266,146.016C156.784,138.589 158.837,126.458 158.973,123.341C159.091,120.642 158.527,118.061 158.196,115.261C152.486,125.776 144.662,134.001 137.102,141.45C136.479,142.064 135.611,142.579 134.746,143.171ZM178.161,114.855C176.507,124.738 178.861,133.823 181.355,140.858C182.89,145.191 184.478,148.787 185.324,151.37C190.482,147.734 195.646,144.569 201.33,142.531C199.732,141.012 198.135,139.807 196.709,138.402C190.091,131.881 184.863,124.732 179.481,116.811C179.104,116.256 178.633,115.585 178.161,114.855ZM249.574,182.823C253.998,185.574 262.018,187.384 266.824,187.631C267.338,177.899 267.197,131.62 266.697,115.2C264.294,119.802 261.348,123.592 258.423,127.113C257.857,127.796 256.925,128.554 256.083,129.38C255.572,129.881 255.063,130.372 254.85,130.94C255.664,133.302 259.921,141.862 260.457,143.797C264.141,157.108 261.041,171.565 251.973,180.5C251.339,181.124 250.528,182.082 249.574,182.823ZM147.182,158.429C147.13,158.337 147.02,158.15 146.925,158.032C146.683,157.732 146.364,157.425 145.997,157.112C143.561,155.043 139.142,152.891 138.01,152.436C136.415,151.796 134.654,151.767 132.8,151.376C133.417,154.561 134.538,158.817 135.846,162.516C136.685,164.888 137.588,167.033 138.495,168.464C140.332,166.776 143.557,163.516 145.601,160.884C146.178,160.142 146.658,159.456 146.966,158.878C147.058,158.706 147.139,158.559 147.182,158.429ZM133.073,173.917C132.51,171.921 129.593,166.277 129.211,164.895C128.347,161.774 127.928,157.944 126.87,154.542C126.106,155.768 125.06,157.262 123.837,158.888C118.909,165.441 111.137,174.385 109.035,176.456C107.557,177.913 105.465,179.176 103.634,180.71C110.707,181.879 121.293,179.962 127.872,177.231C129.693,176.475 131.199,175.664 132.209,174.825C132.587,174.51 132.893,174.22 133.073,173.917ZM224.946,291.087C225.114,291.708 225.559,292.365 226.057,293.036C227.146,294.506 228.582,295.926 229.355,296.857C240.718,310.54 251.287,311.643 266.977,311.687C266.967,295.915 266.671,283.802 258.292,271.47C256.947,269.49 255.659,267.211 253.994,265.57C252.661,264.256 250.562,263.141 248.948,261.641C243.18,265.452 238.634,269.103 231.924,269.475C231.766,273.943 230.84,278.338 229.354,281.66C228.857,282.772 225.627,289.198 224.946,291.087ZM70.164,271.091C70.935,269.611 71.841,268.175 72.822,266.798C76.05,262.267 80.091,258.362 82.495,255.531C79.718,250.013 77.013,245.745 75.408,239.947C73.843,234.29 74.559,225.989 76.996,218.513C78.999,212.366 82.161,206.809 86.055,203.669C85.001,203.283 83.977,202.867 82.854,202.45C82.623,202.364 82.42,202.193 82.274,201.961C82.141,201.748 82.061,201.583 82.01,201.455L81.985,201.352C77.938,200.341 74.388,198.582 70.209,198.32C69.404,210.518 70.314,251.317 70.179,269.589C70.175,270.107 70.17,270.608 70.164,271.091ZM235.446,311.991C234.617,311.461 233.928,311.103 233.245,310.724C231.079,309.523 228.959,308.159 223.211,301.237C222.679,300.596 221.789,299.101 220.894,297.978C220.652,297.674 220.412,297.4 220.179,297.2C220.131,297.158 220.089,297.114 220.048,297.079C219.754,297.259 218.921,297.777 218.223,298.291C215.328,300.423 210.818,304.105 209.232,304.742C198.069,309.223 186.488,305.607 178.98,294.556C178.439,293.761 177.713,292.811 177.031,291.78C174.894,299.714 173.995,303.31 172.767,311.991L235.446,311.991ZM87.011,125.198L87.039,125.181C89.092,123.906 98.571,117.851 104.616,117.117C104.827,110.94 106.508,105.762 108.666,100.936C109.113,99.937 110.315,98.476 111.191,97.078C111.421,96.71 111.625,96.349 111.763,96.004C111.83,95.837 111.898,95.689 111.889,95.546C111.849,94.918 111.41,94.197 110.913,93.442C109.947,91.976 108.632,90.528 107.939,89.693C96.759,76.23 85.574,74.631 70.067,74.562C70.09,92.865 70.707,108.765 82.798,120.678C83.597,121.465 84.642,123.02 85.741,124.177C86.171,124.629 86.59,125.045 87.011,125.198ZM143.392,174.337C143.427,174.416 143.464,174.496 143.502,174.569C143.845,175.23 144.382,176.06 145.035,176.987C147.541,180.544 151.711,185.428 153.695,187.437C155.255,185.336 157.093,183.557 158.901,181.755C160.587,180.075 162.247,178.377 163.573,176.314C161.567,174.208 159.85,171.716 158.108,169.263C156.477,166.966 154.825,164.703 152.841,162.891C149.909,167.282 146.532,170.502 143.392,174.337ZM197.828,217.715C196.228,218.843 194.711,220.948 193.264,223.138C191.941,225.139 190.684,227.223 189.515,228.859C194.136,232.05 198.74,234.514 203.88,235.849C203.103,232.331 202.251,228.154 201.028,224.419C200.179,221.826 199.159,219.446 197.828,217.715ZM193.412,174.886C193.101,174.436 192.466,173.537 191.793,172.712C189.335,169.7 185.356,165.339 183.549,163.336C180.38,165.959 175.136,172.608 172.867,176.291C175.138,179.358 179.999,184.927 182.665,187.331C184.617,185.491 189.054,180.76 191.71,177.378C192.408,176.489 193.108,175.381 193.412,174.886ZM233.857,75.235C228.763,75.262 222.599,74.56 219.024,74.559C203.378,74.853 188.328,74.861 172.828,74.861C173.039,82.438 174.953,88.316 177.092,94.709C183.709,82.072 197.336,77.033 208.48,81.506C210.764,82.423 217.978,87.983 220.119,89.644C220.198,89.538 220.282,89.421 220.338,89.328C220.597,88.898 220.842,88.467 221.081,88.179C225.13,83.303 228.924,78.663 233.857,75.235ZM243.545,256.175C236.289,250.615 221.969,247.256 213.218,246.903C214.376,253.512 214.592,263.034 216.653,270.482C217.774,274.531 219.361,278.352 220.864,282.389C222.878,277.929 223.855,276.881 224.313,275.352C224.84,273.599 224.627,271.207 224.627,262.08C224.627,261.312 225.144,260.689 225.782,260.689C229.198,260.689 233.814,260.578 237.853,259.344C240.029,258.679 242.038,257.696 243.545,256.175ZM241.923,208.628C234.129,213.013 223.933,225.536 218.907,232.934C217.706,234.701 216.595,236.93 215.276,238.985C227.524,240.795 235.147,241.976 246.621,248.886C246.987,249.106 247.376,249.167 247.788,249.296C248.148,249.409 248.522,249.55 248.913,249.774C249.96,248.395 250.72,246.663 251.384,245.465C256.14,236.873 255.578,226.452 251.98,218.768C249.68,213.857 246.137,210.054 241.923,208.628ZM224.794,95.216C225.979,97.634 231.341,108.969 231.901,117.369C238.875,117.661 244.099,120.708 249.657,125.074C250.4,124.185 251.208,123.434 251.998,122.712C252.905,121.884 253.788,121.105 254.458,120.119C266.11,102.969 266.947,96.854 266.976,74.559L263.63,74.559C246.92,74.855 241.722,77.38 229.62,89.303C228.766,90.145 227.149,91.634 225.956,93.209C225.434,93.898 224.967,94.574 224.794,95.216ZM116.031,103.033C114.886,104.861 114.022,107.358 113.393,110.046C112.201,115.141 111.884,120.94 112.399,124.536C112.461,124.967 112.35,125.409 112.1,125.727C111.851,126.045 111.491,126.203 111.13,126.154C104.875,125.291 98.71,126.072 93.866,130.672C98.614,134.242 104.843,135.981 110.551,137.066C115.688,138.043 120.427,138.501 123.438,139.172C121.739,130.277 122.694,121.951 116.966,105.855C116.766,105.295 116.561,104.441 116.259,103.61C116.188,103.416 116.114,103.22 116.031,103.033ZM189.348,157.903L189.362,157.935C189.631,158.518 190.033,159.197 190.515,159.929C192.468,162.892 195.713,166.657 197.588,168.538C199.226,165.028 201.161,162.094 202.133,158.584C202.754,156.34 202.963,153.57 203.372,151.005C199.048,152.654 195.206,153.919 191.497,156.325C190.869,156.732 190.191,157.399 189.348,157.903ZM158.172,271.9C159.827,260.231 157.445,248.949 153.046,239.11C152.784,238.526 152.448,237.499 151.981,236.551C151.744,236.069 151.49,235.577 151.159,235.279C147.736,237.666 144.86,240.009 141.547,241.339C139.581,242.128 137.222,242.657 134.929,243.522C142.348,250.502 149.132,257.431 154.931,265.967C156.075,267.651 156.983,269.886 158.172,271.9ZM102.788,311.991L163.773,311.991C162.741,304.448 162.059,297.657 159.574,290.827C158.594,292.637 157.423,294.056 156.51,295.401C149.451,305.791 138.1,309.194 127.61,304.983C125.907,304.3 118.598,298.742 116.37,297.374C116.085,297.672 115.59,298.204 115.19,298.704C113.13,301.279 110.145,305.592 109.11,306.611C107.184,308.51 105.11,310.413 102.788,311.991ZM87.142,261.469C72.128,273.068 70.17,292.066 70.07,311.652C73.186,311.049 77.403,311.39 82.166,311.138C90.087,310.718 99.607,308.506 107.861,296.356C108.517,295.392 109.864,294.043 110.873,292.656C111.356,291.992 111.794,291.36 111.84,290.743C111.846,290.669 111.804,290.593 111.774,290.503C111.689,290.253 111.561,289.988 111.416,289.719C110.855,288.679 110.054,287.605 109.699,286.963C107.038,282.156 105.113,276.156 104.87,269.778C99.475,269.494 96.076,267.191 92.949,264.936C91.058,263.572 89.28,262.219 87.142,261.469ZM225.319,205.228L225.312,205.228C222.567,205.453 213.153,207.459 207.524,210.162C206.382,210.71 205.403,211.281 204.691,211.879C204.237,212.26 203.872,212.568 203.816,212.968C203.8,213.084 203.84,213.206 203.877,213.337C203.958,213.622 204.086,213.914 204.227,214.202C204.599,214.963 205.053,215.697 205.298,216.245C207.522,221.219 209.005,226.732 210.758,232.234C214.247,226.36 221.499,216.746 227.673,210.21C229.448,208.331 231.14,206.707 232.636,205.481C230.216,205.175 227.88,205.227 225.319,205.228ZM134.364,88.441L134.359,88.441C132.216,88.683 126.096,91.548 122.662,94.334C121.978,94.888 121.406,95.433 121.017,95.959C120.899,96.117 120.801,96.271 120.729,96.422C120.698,96.489 120.653,96.54 120.657,96.6C120.696,97.219 121.285,98.48 121.949,99.951C123.136,102.58 124.665,105.699 125.112,107.312C127.555,116.138 130.048,126.208 130.413,136.192C139.618,129.165 148.026,119.953 153.02,108.783C153.385,107.967 154.002,107.08 154.548,106.165C154.929,105.525 155.304,104.887 155.341,104.219C155.388,103.371 155.17,102.449 154.773,101.489C154.08,99.814 152.847,98.065 151.257,96.405C147.149,92.116 140.668,88.459 134.364,88.441ZM83.97,201.451L83.961,201.47L83.973,201.452L83.97,201.451ZM239.815,73.209L239.815,73.169L239.811,73.17L239.815,73.209Z" style="fill:rgb(142,56,230);"/>
            </g>
        </g>
        <g transform="matrix(0.803437,0,0,0.976966,0,0)">
            <g transform="matrix(0.749268,0,0,0.616183,144.277,27.5851)">
                <path d="M412.049,257.586L412.049,163.163L423.114,163.163L465.412,234.492L459.528,234.492L501.35,163.163L512.415,163.163L512.529,257.586L499.577,257.586L499.464,183.593L502.48,183.593L465.32,246.169L459.144,246.169L421.622,183.593L425,183.593L425,257.586L412.049,257.586Z" style="fill:white;fill-rule:nonzero;"/>
                <path d="M606.429,186.094L606.429,257.586L594.019,257.586L594.019,246.255C591.141,250.212 587.499,253.225 583.093,255.293C578.687,257.361 573.831,258.395 568.525,258.395C561.601,258.395 555.396,256.867 549.91,253.809C544.425,250.752 540.131,246.458 537.028,240.927C533.926,235.397 532.375,229.034 532.375,221.84C532.375,214.646 533.926,208.306 537.028,202.821C540.131,197.335 544.425,193.064 549.91,190.006C555.396,186.949 561.601,185.42 568.525,185.42C573.651,185.42 578.372,186.387 582.688,188.32C587.005,190.254 590.602,193.109 593.48,196.886L593.48,186.094L606.429,186.094ZM569.604,247.065C574.1,247.065 578.192,246.008 581.879,243.895C585.566,241.781 588.444,238.814 590.512,234.992C592.58,231.17 593.614,226.786 593.614,221.84C593.614,216.894 592.58,212.51 590.512,208.688C588.444,204.867 585.566,201.922 581.879,199.853C578.192,197.785 574.1,196.751 569.604,196.751C565.018,196.751 560.904,197.785 557.262,199.853C553.62,201.922 550.742,204.867 548.629,208.688C546.515,212.51 545.459,216.894 545.459,221.84C545.459,226.786 546.515,231.17 548.629,234.992C550.742,238.814 553.62,241.781 557.262,243.895C560.904,246.008 565.018,247.065 569.604,247.065Z" style="fill:white;fill-rule:nonzero;"/>
                <path d="M643.389,198.1C645.637,193.963 648.964,190.816 653.371,188.657C657.777,186.499 663.128,185.42 669.422,185.42L669.422,197.965C668.703,197.875 667.714,197.83 666.455,197.83C659.441,197.83 653.933,199.921 649.931,204.102C645.929,208.284 643.928,214.241 643.928,221.975L643.928,257.586L630.979,257.586L630.979,186.094L643.389,186.094L643.389,198.1Z" style="fill:white;fill-rule:nonzero;"/>
                <path d="M713.127,224.268L698.289,238.027L698.289,257.586L685.339,257.586L685.339,157.498L698.289,157.498L698.289,221.705L737.272,186.094L752.919,186.094L722.839,215.635L755.887,257.586L739.97,257.586L713.127,224.268Z" style="fill:white;fill-rule:nonzero;"/>
                <path d="M800.293,258.332C792.636,258.332 785.916,256.769 780.131,253.643C774.346,250.516 769.852,246.202 766.649,240.699C763.446,235.197 761.845,228.915 761.845,221.853C761.845,214.777 763.391,208.494 766.483,203.005C769.575,197.516 773.837,193.208 779.269,190.082C784.701,186.956 790.855,185.393 797.73,185.393C804.604,185.393 810.7,186.93 816.019,190.004C821.338,193.079 825.509,197.376 828.531,202.896C831.553,208.416 833.065,214.851 833.065,222.203C833.065,222.748 833.046,223.388 833.008,224.124C832.97,224.859 832.913,225.545 832.837,226.182L771.987,226.182L771.987,216.784L826,216.784L820.819,220.059C820.895,215.463 819.933,211.383 817.933,207.818C815.933,204.253 813.2,201.457 809.736,199.429C806.272,197.4 802.27,196.386 797.73,196.386C793.204,196.386 789.186,197.4 785.677,199.429C782.168,201.457 779.436,204.272 777.481,207.875C775.525,211.478 774.548,215.653 774.548,220.401L774.548,222.536C774.548,227.326 775.638,231.567 777.818,235.26C779.998,238.952 783.06,241.832 787.005,243.898C790.95,245.964 795.493,246.997 800.634,246.997C804.855,246.997 808.715,246.288 812.213,244.869C815.711,243.451 818.74,241.285 821.3,238.371L828.428,246.753C825.219,250.53 821.214,253.404 816.413,255.375C811.613,257.346 806.239,258.332 800.293,258.332Z" style="fill:white;fill-rule:nonzero;"/>
                <path d="M888.663,253.404C886.775,255.023 884.437,256.26 881.649,257.114C878.861,257.968 875.984,258.395 873.016,258.395C865.822,258.395 860.247,256.462 856.29,252.595C852.333,248.728 850.355,243.198 850.355,236.004L850.355,170.447L863.304,170.447L863.304,186.094L883.807,186.094L883.807,196.751L863.304,196.751L863.304,235.464C863.304,239.331 864.271,242.298 866.204,244.367C868.138,246.435 870.903,247.469 874.5,247.469C878.457,247.469 881.829,246.345 884.617,244.097L888.663,253.404Z" style="fill:white;fill-rule:nonzero;"/>
                <path d="M904.31,257.586L904.31,186.094L917.26,186.094L917.26,257.586L904.31,257.586ZM910.785,172.336C908.267,172.336 906.176,171.526 904.513,169.908C902.849,168.289 902.017,166.311 902.017,163.973C902.017,161.545 902.849,159.521 904.513,157.903C906.176,156.284 908.267,155.475 910.785,155.475C913.303,155.475 915.394,156.261 917.058,157.835C918.721,159.409 919.553,161.365 919.553,163.703C919.553,166.131 918.744,168.177 917.125,169.84C915.506,171.504 913.393,172.336 910.785,172.336Z" style="fill:white;fill-rule:nonzero;"/>
                <path d="M941.954,257.586L941.954,186.139L954.335,186.139L954.335,205.398L952.242,200.323C954.614,195.575 958.223,191.9 963.069,189.297C967.915,186.694 973.583,185.393 980.073,185.393C985.905,185.393 991.041,186.513 995.481,188.754C999.922,190.995 1003.42,194.407 1005.98,198.99C1008.54,203.573 1009.82,209.391 1009.82,216.445L1009.82,257.586L996.869,257.586L996.869,217.926C996.869,210.964 995.179,205.728 991.797,202.219C988.416,198.71 983.642,196.955 977.475,196.955C972.955,196.955 968.985,197.869 965.565,199.696C962.146,201.524 959.514,204.188 957.67,207.69C955.826,211.193 954.904,215.531 954.904,220.706L954.904,257.586L941.954,257.586Z" style="fill:white;fill-rule:nonzero;"/>
                <path d="M1102.11,186.094L1102.11,247.874C1102.11,260.374 1099.01,269.614 1092.8,275.594C1086.6,281.574 1077.34,284.564 1065.02,284.564C1058.27,284.564 1051.84,283.642 1045.73,281.799C1039.61,279.955 1034.66,277.325 1030.89,273.908L1037.09,263.926C1040.42,266.803 1044.54,269.074 1049.44,270.738C1054.34,272.401 1059.39,273.233 1064.61,273.233C1072.97,273.233 1079.16,271.255 1083.16,267.298C1087.16,263.341 1089.16,257.316 1089.16,249.223L1089.16,243.557C1086.1,247.244 1082.35,250.01 1077.9,251.853C1073.45,253.697 1068.61,254.618 1063.4,254.618C1056.56,254.618 1050.38,253.157 1044.85,250.234C1039.32,247.312 1034.98,243.22 1031.83,237.96C1028.68,232.699 1027.11,226.696 1027.11,219.952C1027.11,213.207 1028.68,207.205 1031.83,201.944C1034.98,196.683 1039.32,192.614 1044.85,189.736C1050.38,186.859 1056.56,185.42 1063.4,185.42C1068.79,185.42 1073.81,186.409 1078.44,188.388C1083.07,190.366 1086.87,193.289 1089.84,197.155L1089.84,186.094L1102.11,186.094ZM1064.88,243.288C1069.56,243.288 1073.76,242.298 1077.49,240.32C1081.22,238.342 1084.15,235.576 1086.26,232.024C1088.37,228.472 1089.43,224.448 1089.43,219.952C1089.43,213.027 1087.14,207.43 1082.55,203.158C1077.96,198.886 1072.08,196.751 1064.88,196.751C1057.6,196.751 1051.66,198.886 1047.08,203.158C1042.49,207.43 1040.2,213.027 1040.2,219.952C1040.2,224.448 1041.25,228.472 1043.37,232.024C1045.48,235.576 1048.4,238.342 1052.13,240.32C1055.87,242.298 1060.11,243.288 1064.88,243.288Z" style="fill:white;fill-rule:nonzero;"/>
                <path d="M556.733,320.31C563.658,320.31 569.862,321.838 575.348,324.896C580.833,327.953 585.127,332.225 588.23,337.71C591.332,343.196 592.884,349.536 592.884,356.73C592.884,363.924 591.332,370.286 588.23,375.817C585.127,381.347 580.833,385.641 575.348,388.699C569.862,391.756 563.658,393.285 556.733,393.285C551.428,393.285 546.571,392.251 542.165,390.182C537.759,388.114 534.117,385.102 531.239,381.145L531.239,392.476L518.829,392.476L518.829,292.387L531.779,292.387L531.779,331.775C534.656,327.998 538.253,325.143 542.57,323.21C546.886,321.276 551.607,320.31 556.733,320.31ZM555.654,381.954C560.24,381.954 564.354,380.898 567.996,378.784C571.638,376.671 574.516,373.703 576.629,369.882C578.743,366.06 579.799,361.676 579.799,356.73C579.799,351.784 578.743,347.4 576.629,343.578C574.516,339.756 571.638,336.811 567.996,334.743C564.354,332.675 560.24,331.64 555.654,331.64C551.158,331.64 547.066,332.675 543.379,334.743C539.692,336.811 536.814,339.756 534.746,343.578C532.678,347.4 531.644,351.784 531.644,356.73C531.644,361.676 532.678,366.06 534.746,369.882C536.814,373.703 539.692,376.671 543.379,378.784C547.066,380.898 551.158,381.954 555.654,381.954Z" style="fill:rgb(142,56,230);fill-rule:nonzero;"/>
                <path d="M677.459,320.984L677.459,382.764C677.459,395.263 674.537,404.503 668.692,410.483C662.846,416.463 654.079,419.454 642.388,419.454C636.003,419.454 629.911,418.532 624.111,416.688C618.31,414.845 613.567,412.214 609.88,408.797L616.22,398.815C619.367,401.693 623.166,403.941 627.618,405.56C632.069,407.179 636.768,407.988 641.714,407.988C649.537,407.988 655.293,406.032 658.98,402.12C662.667,398.208 664.51,392.206 664.51,384.112L664.51,378.852C661.902,382.269 658.53,384.899 654.393,386.743C650.257,388.586 645.76,389.508 640.904,389.508C631.372,389.508 623.863,386.9 618.378,381.684C612.892,376.469 610.149,368.735 610.149,358.483L610.149,320.984L623.099,320.984L623.099,357C623.099,363.834 624.763,369.027 628.09,372.579C631.417,376.131 636.183,377.908 642.388,377.908C649.223,377.908 654.618,375.839 658.575,371.703C662.532,367.566 664.51,361.721 664.51,354.167L664.51,320.984L677.459,320.984Z" style="fill:rgb(142,56,230);fill-rule:nonzero;"/>
                <path d="M803.794,343.511C809.28,345.039 813.596,347.805 816.744,351.806C819.891,355.808 821.465,360.866 821.465,366.981C821.465,375.165 818.385,381.46 812.225,385.866C806.065,390.272 797.095,392.476 785.314,392.476L740.261,392.476L740.261,298.053L782.617,298.053C793.408,298.053 801.748,300.211 807.639,304.528C813.529,308.844 816.474,314.824 816.474,322.468C816.474,327.414 815.327,331.685 813.034,335.282C810.741,338.879 807.661,341.622 803.794,343.511ZM753.75,308.979L753.75,339.194L781.403,339.194C788.327,339.194 793.655,337.913 797.387,335.35C801.119,332.787 802.985,329.033 802.985,324.087C802.985,319.141 801.119,315.386 797.387,312.823C793.655,310.26 788.327,308.979 781.403,308.979L753.75,308.979ZM784.775,381.55C792.419,381.55 798.174,380.291 802.041,377.773C805.907,375.255 807.841,371.298 807.841,365.902C807.841,355.381 800.152,350.12 784.775,350.12L753.75,350.12L753.75,381.55L784.775,381.55Z" style="fill:white;fill-rule:nonzero;"/>
                <path d="M872.346,393.222C864.689,393.222 857.969,391.659 852.184,388.532C846.399,385.406 841.905,381.091 838.702,375.589C835.499,370.087 833.898,363.805 833.898,356.742C833.898,349.666 835.444,343.384 838.536,337.895C841.628,332.406 845.89,328.098 851.322,324.972C856.754,321.845 862.908,320.282 869.783,320.282C876.656,320.282 882.753,321.819 888.072,324.894C893.391,327.968 897.561,332.265 900.584,337.785C903.606,343.305 905.117,349.741 905.117,357.092C905.117,357.638 905.098,358.278 905.061,359.013C905.023,359.749 904.966,360.435 904.89,361.072L844.04,361.072L844.04,351.674L898.053,351.674L892.872,354.949C892.948,350.353 891.986,346.272 889.986,342.708C887.985,339.143 885.253,336.346 881.789,334.318C878.325,332.29 874.323,331.276 869.783,331.276C865.257,331.276 861.239,332.29 857.73,334.318C854.221,336.346 851.489,339.162 849.533,342.765C847.578,346.367 846.601,350.542 846.601,355.29L846.601,357.425C846.601,362.215 847.691,366.457 849.871,370.149C852.051,373.842 855.113,376.721 859.058,378.787C863.003,380.854 867.546,381.887 872.687,381.887C876.908,381.887 880.767,381.178 884.265,379.759C887.763,378.341 890.792,376.174 893.353,373.26L900.481,381.642C897.271,385.419 893.266,388.293 888.466,390.265C883.665,392.236 878.292,393.222 872.346,393.222Z" style="fill:white;fill-rule:nonzero;"/>
                <path d="M943.585,393.285C937.74,393.285 932.119,392.498 926.724,390.924C921.328,389.351 917.102,387.35 914.044,384.922L919.44,374.67C922.587,376.918 926.409,378.717 930.905,380.066C935.402,381.415 939.943,382.089 944.529,382.089C955.86,382.089 961.525,378.852 961.525,372.377C961.525,370.219 960.761,368.51 959.232,367.251C957.704,365.992 955.793,365.071 953.5,364.486C951.206,363.901 947.947,363.25 943.72,362.53C937.965,361.631 933.266,360.597 929.624,359.428C925.982,358.259 922.857,356.28 920.249,353.492C917.641,350.705 916.337,346.793 916.337,341.757C916.337,335.282 919.035,330.089 924.431,326.177C929.826,322.266 937.065,320.31 946.148,320.31C950.914,320.31 955.68,320.894 960.446,322.063C965.212,323.232 969.124,324.806 972.182,326.784L966.651,337.036C960.806,333.259 953.927,331.371 946.013,331.371C940.528,331.371 936.346,332.27 933.468,334.068C930.591,335.867 929.152,338.25 929.152,341.218C929.152,343.556 929.961,345.399 931.58,346.748C933.199,348.097 935.199,349.086 937.583,349.716C939.966,350.345 943.315,351.064 947.632,351.874C953.387,352.863 958.041,353.92 961.593,355.044C965.145,356.168 968.18,358.079 970.698,360.777C973.216,363.474 974.475,367.251 974.475,372.107C974.475,378.582 971.71,383.73 966.179,387.552C960.649,391.374 953.117,393.285 943.585,393.285Z" style="fill:white;fill-rule:nonzero;"/>
                <path d="M990.662,320.984L1003.61,320.984L1003.61,392.476L990.662,392.476L990.662,320.984ZM997.136,307.225C994.618,307.225 992.528,306.416 990.864,304.797C989.2,303.179 988.368,301.2 988.368,298.862C988.368,296.524 989.2,294.523 990.864,292.86C992.528,291.196 994.618,290.364 997.136,290.364C999.654,290.364 1001.75,291.151 1003.41,292.725C1005.07,294.298 1005.9,296.254 1005.9,298.592C1005.9,301.02 1005.07,303.066 1003.41,304.73C1001.75,306.394 999.654,307.225 997.136,307.225Z" style="fill:white;fill-rule:nonzero;"/>
                <path d="M1059.45,393.285C1052.17,393.285 1045.67,391.711 1039.96,388.564C1034.25,385.416 1029.78,381.077 1026.54,375.547C1023.31,370.016 1021.69,363.744 1021.69,356.73C1021.69,349.716 1023.31,343.443 1026.54,337.913C1029.78,332.382 1034.25,328.066 1039.96,324.963C1045.67,321.861 1052.17,320.31 1059.45,320.31C1065.93,320.31 1071.71,321.614 1076.79,324.221C1081.87,326.829 1085.8,330.606 1088.59,335.552L1078.75,341.892C1076.5,338.475 1073.71,335.912 1070.38,334.203C1067.05,332.495 1063.37,331.64 1059.32,331.64C1054.64,331.64 1050.44,332.675 1046.71,334.743C1042.98,336.811 1040.05,339.756 1037.94,343.578C1035.83,347.4 1034.77,351.784 1034.77,356.73C1034.77,361.766 1035.83,366.195 1037.94,370.016C1040.05,373.838 1042.98,376.783 1046.71,378.852C1050.44,380.92 1054.64,381.954 1059.32,381.954C1063.37,381.954 1067.05,381.1 1070.38,379.391C1073.71,377.683 1076.5,375.12 1078.75,371.703L1088.59,377.908C1085.8,382.853 1081.87,386.653 1076.79,389.306C1071.71,391.959 1065.93,393.285 1059.45,393.285Z" style="fill:white;fill-rule:nonzero;"/>
            </g>
        </g>
    </g>
</svg>
