<?xml version="1.0" encoding="UTF-8" standalone="no"?>
<!DOCTYPE svg PUBLIC "-//W3C//DTD SVG 1.1//EN" "http://www.w3.org/Graphics/SVG/1.1/DTD/svg11.dtd">
<svg width="100%" height="100%" viewBox="0 0 227 227" version="1.1" xmlns="http://www.w3.org/2000/svg" xmlns:xlink="http://www.w3.org/1999/xlink" xml:space="preserve" xmlns:serif="http://www.serif.com/" style="fill-rule:evenodd;clip-rule:evenodd;stroke-linejoin:round;stroke-miterlimit:2;">
    <g transform="matrix(1,0,0,1,-89.6439,-86.7202)">
        <g transform="matrix(0.803437,0,0,0.976966,0,0)">
            <g transform="matrix(1.32353,0,0,0.903838,29.5263,30.1625)">
                <path d="M63.147,64.837L273.645,64.837C274.283,64.837 274.8,65.46 274.8,66.228L274.8,320.02C274.8,320.788 274.283,321.411 273.645,321.411L63.147,321.411C62.51,321.411 61.993,320.788 61.993,320.02L61.993,66.228C61.993,65.46 62.51,64.837 63.147,64.837ZM87.879,136.383C83.689,143.387 82.084,149.757 82.07,155.317C82.05,163.875 85.795,170.456 89.376,174.331C90.88,175.959 92.352,177.107 93.5,177.701C94.023,177.971 94.426,178.171 94.688,178.099C95.056,177.996 95.451,177.705 95.848,177.374C96.617,176.734 97.367,175.91 97.925,175.36C103.672,169.697 110.086,164.894 114.878,157.841C117.083,154.596 119.296,150.889 121.851,147.536C112.825,146.135 104.72,144.244 96.261,140.848C93.456,139.722 90.953,137.757 87.879,136.383ZM138.657,218.477C137.518,220.173 136.6,222.383 135.827,224.753C134.629,228.427 133.792,232.49 133.119,235.811C135.604,235.083 138.998,233.794 141.968,232.301C144.107,231.226 146.027,230.068 147.159,228.919C147.079,228.552 146.892,228.157 146.664,227.727C146.214,226.876 145.563,225.969 144.82,225.051C142.848,222.617 140.25,220.14 138.657,218.477ZM168.28,204.844C170.326,202.66 176.215,195.477 177.833,193.097C177.524,192.606 176.91,191.666 176.272,190.879C173.945,188.009 170.236,184.151 168.275,182.029C166.747,184.199 164.979,186.033 163.243,187.857C161.565,189.619 159.917,191.368 158.602,193.464C160.483,195.866 165.333,201.758 167.735,204.298C167.917,204.491 168.112,204.683 168.28,204.844ZM196.744,88.743L196.735,88.743C192.202,89.045 187.612,93.203 185.227,96.712C184.369,97.977 183.023,99.604 182.002,101.312C181.425,102.277 180.943,103.257 180.812,104.208C180.796,104.32 180.844,104.444 180.885,104.585C180.977,104.899 181.124,105.234 181.295,105.574C181.909,106.797 182.825,108.053 183.273,108.712C188.666,116.65 193.48,124.275 200.151,130.848C202.068,132.737 204.232,134.312 206.39,136.192C206.896,123.503 210.742,107.392 216.079,96.991C214.679,96.11 213.627,95.111 212.593,94.104C209.831,91.412 207.174,88.748 196.744,88.743ZM168.544,295.991C170.02,290.751 172.241,283.666 172.816,281.83L172.873,281.648C172.739,279.201 170.75,269.452 170.75,264.343C170.75,259.394 172.185,249.891 174.518,241.761C175.875,237.029 177.554,232.768 179.4,230.055C177.228,228.197 175.436,225.813 173.681,223.397C171.994,221.074 170.343,218.719 168.342,216.88C166.307,219.592 162.021,224.193 159.305,227.418C158.314,228.593 157.34,230.012 157.221,230.186C157.203,230.358 157.285,230.487 157.378,230.667C157.569,231.038 157.841,231.465 158.174,232.03C159.525,234.322 161.847,238.681 164.129,249.671C166.95,263.262 165.552,271.254 164.559,276.601C164.173,278.68 163.832,280.314 163.91,281.723C164.014,283.609 165.337,286.599 166.587,289.943C167.318,291.898 168.032,293.958 168.544,295.991ZM88.05,250.143C88.089,250.14 88.263,250.124 88.372,250.092C88.711,249.991 89.09,249.794 89.484,249.557C90.94,248.684 92.551,247.31 93.365,246.89C100.761,243.072 108.501,240.345 116.521,239.271C118.05,239.067 119.723,239.071 121.423,238.926C115.487,229.346 109.036,221.37 101.584,214.027C99.457,211.931 96.676,210.595 94.265,208.424C92.229,209.42 90.472,211.398 89.213,212.639C79.244,222.461 80.943,236.025 84.18,244.008C85.473,247.197 86.953,249.515 88.05,250.143ZM108.912,204.337C106.818,204.554 105.032,204.951 103.212,205.452C105.039,207.159 106.908,208.491 108.534,210.094C114.78,216.248 120.139,223.007 125.236,230.509C125.639,231.102 126.176,231.814 126.695,232.598C127.611,230.153 128.116,227.064 128.839,223.91C129.733,220.009 130.924,216.021 133.287,212.798C125.098,206.299 117.314,206.824 108.912,204.337ZM86.069,194.443C87.647,195.04 89.194,196.009 90.665,196.947C92.264,197.968 93.751,198.975 95.093,199.148C95.454,199.038 98.171,198.226 101.296,197.619C110.001,195.929 125.714,195.013 138.013,207.089C140.294,204.341 146.818,196.311 149.112,193.291C144.724,189.74 141.088,184.427 137.58,179.903C124.629,187.924 114.588,192.119 100.059,189.031C99.201,188.849 98.269,188.439 97.337,188.085C96.598,187.804 95.861,187.546 95.175,187.601C92.996,187.776 90.463,189.499 87.792,191.124C86.615,191.84 85.416,192.541 84.212,193.128L85.229,193.435C85.652,193.562 85.967,193.959 86.069,194.443ZM103.572,74.565C105.558,76.033 107.314,77.86 108.957,79.844C111.559,82.986 113.87,86.526 116.435,89.54C119.048,87.604 121.101,85.462 123.519,83.894C133.341,77.525 145.08,78.672 153.716,87.181C155.947,89.379 157.406,92.247 159.391,94.971C162.28,88.323 162.601,82.003 163.93,74.86C143.582,74.849 123.732,74.606 103.572,74.565ZM153.138,223.28C154.056,222.359 156.645,219.724 158.597,217.353C160.583,214.942 162.78,211.796 163.509,210.738C163.359,210.501 163.163,210.203 162.965,209.928C160.82,206.945 155.825,200.977 153.839,198.941C151.757,200.899 147.701,205.551 145.108,209.209C144.311,210.332 143.642,211.331 143.263,212.103C145.848,214.544 151.243,221.192 153.138,223.28ZM130.552,250.098C129.643,262.529 127.04,273.832 123.198,284.627C122.86,285.577 121.844,287.226 121.162,288.753C120.98,289.16 120.825,289.555 120.734,289.918C120.695,290.072 120.644,290.207 120.67,290.322C120.753,290.691 121.064,291.11 121.489,291.602C122.352,292.604 123.691,293.713 125.356,294.729C131.949,298.756 143.625,301.289 151.815,289.234C153.199,287.197 154.82,284.852 155.523,282.311C155.678,281.752 155.367,281.149 155.059,280.547C154.585,279.623 153.942,278.762 153.519,278.139C152.154,276.13 151.226,273.691 149.861,271.681C144.424,263.68 137.866,256.251 130.552,250.098ZM248.532,136.2C244.807,137.682 231.169,146.993 215.487,147.83C222.045,158.58 229.565,169.508 239.059,175.664C239.64,176.041 240.314,176.702 241.018,177.223C241.427,177.526 241.826,177.85 242.237,177.737C245.468,176.838 248.296,173.922 250.473,170.213C253.816,164.516 255.638,156.908 254.816,151.298C254.217,147.208 252.606,143.744 251.002,140.158C250.682,139.442 250.158,138.187 249.456,137.186C249.176,136.787 248.874,136.416 248.532,136.2ZM266.973,271.537C266.941,247.011 266.734,223.009 266.727,198.589L266.644,198.589L266.636,198.589C258.521,198.853 254.733,201.871 250.027,203.807C259.797,213.617 265.213,226.234 260.908,241.787C260.4,243.621 256.027,252.611 254.721,255.391C255.95,256.894 259.19,260.057 259.802,260.795C262.225,263.713 265.022,267.408 266.973,271.537ZM243.017,130.143C242.71,129.706 242.16,129.384 241.575,129.058C240.022,128.19 238.085,127.612 237.105,127.106C233.713,125.356 229.831,126.163 225.782,126.163C225.144,126.163 224.627,125.54 224.627,124.772C224.627,117.13 224.68,111.769 221.883,105.514C221.592,104.863 221.334,103.96 220.846,103.204C218.803,106.319 217.365,111.904 216.249,117.812C214.677,126.133 213.817,135.116 213.236,139.481C215.9,138.786 218.602,138.571 221.533,138.238C226.691,137.652 232.588,136.665 240.345,131.635C240.841,131.314 241.514,131.025 242.155,130.687C242.467,130.522 242.778,130.36 243.017,130.143ZM239.806,73.441L239.79,73.177L239.587,73.24L239.626,73.518L239.806,73.441ZM215.724,290.281C215.712,290.229 215.676,290.073 215.649,289.998C210.912,276.688 207.764,264.318 206.514,249.667C201.604,253.735 191.743,264.461 185.715,272.884C184.011,275.265 182.616,277.456 181.744,279.257C181.252,280.272 180.923,281.124 180.873,281.791C180.856,282.01 180.938,282.281 181.041,282.601C181.2,283.1 181.442,283.66 181.734,284.254C183.2,287.231 185.912,290.971 187.045,292.086C195.925,300.836 206.199,298.174 211.842,294.346C213.243,293.395 214.354,292.379 215.065,291.445C215.396,291.011 215.64,290.626 215.724,290.281ZM122.807,246.873L122.801,246.873C118.088,247.055 110.057,248.606 103.168,251.172C99.451,252.556 96.064,254.219 93.767,256.147C99.387,259.764 104.662,260.689 111.261,260.689C111.593,260.689 111.909,260.861 112.128,261.162C112.348,261.462 112.449,261.862 112.406,262.258C112.039,265.675 112.184,271.899 113.308,277.096C113.86,279.65 114.621,281.968 115.732,283.471C120.241,273.939 121.532,265.014 122.263,257.805C122.699,253.504 122.952,249.79 123.518,246.873L122.807,246.873ZM187.829,193.329C189.144,195.119 192.868,199.201 193.52,199.987C194.337,200.971 197.722,205.663 199.108,206.701C199.59,206.584 200.154,206.222 200.744,205.812C202.025,204.924 203.36,203.739 204.26,203.156C208.337,200.512 213.239,199.53 217.598,197.78C223.992,195.213 230.512,196.23 235.33,197.421C238.287,198.152 240.54,198.988 241.606,198.89C243.26,198.736 245.953,197.089 248.971,195.528C250.557,194.708 252.223,193.906 253.877,193.294C251.298,192.392 248.639,191.064 246.352,189.892C244.867,189.131 243.547,188.445 242.525,188.019C241.989,187.796 241.563,187.634 241.268,187.634C238.966,187.634 232.407,189.904 228.724,190.137C221.32,190.606 205.542,186.153 198.627,180.102C196.328,183.137 190.745,189.431 188.375,192.558C188.178,192.819 187.983,193.101 187.829,193.329ZM183.571,223.454C183.692,223.343 183.833,223.208 183.96,223.071C184.823,222.138 186.157,220.467 188.379,217.792C189.807,216.071 191.952,214.304 193.429,212.135C191.204,209.483 185.284,202.208 182.803,199.27C180.508,202.693 178.294,204.921 176.546,206.626C175.692,207.459 174.955,208.157 174.391,208.815C173.968,209.308 173.645,209.744 173.515,210.24C173.331,210.943 173.624,211.672 174.267,212.74C175.162,214.227 176.716,216.104 179.077,218.673C181.368,220.087 182.465,221.609 183.14,222.729C183.286,222.971 183.445,223.24 183.571,223.454ZM203.816,173.028C203.839,173.078 203.875,173.128 203.91,173.185C204.049,173.404 204.244,173.627 204.482,173.859C205.382,174.736 206.823,175.659 208.608,176.563C215.169,179.885 226.284,182.859 233.446,181.138C227.392,174.826 220.846,169.949 215.867,162.62C214.778,161.017 213.338,158.167 211.828,155.713C211.353,154.942 210.874,154.209 210.399,153.583C208.431,162.021 204.268,170.963 203.816,173.028ZM156.868,156.626C158.121,158.36 162.517,162.651 163.324,163.623C163.994,164.43 167.732,168.705 168.624,169.726C168.875,169.486 169.258,169.107 169.562,168.753C171.302,166.728 173.707,163.336 174.471,162.416C175.16,161.586 178.808,158.16 179.923,156.633C179.8,156.282 179.587,155.693 179.374,155.195C178.263,152.595 176.3,148.68 175.849,147.672C174.229,144.048 173.136,139.757 172.313,135.792C169.819,123.782 171.348,115.677 172.381,110.124C172.782,107.969 173.123,106.243 173.033,104.841C172.956,103.636 172.129,101.575 171.178,99.111C170.234,96.666 169.154,93.878 168.356,91.137C167.543,93.832 166.466,96.614 165.53,99.059C164.575,101.551 163.749,103.635 163.684,104.796C163.615,106.044 163.93,107.404 164.292,109.23C165.235,113.983 166.63,121.54 164.396,136.783C163.722,141.386 162.016,146.006 160.191,150.086C159.776,151.015 158.153,153.777 157.243,155.715C157.103,156.013 156.961,156.377 156.868,156.626ZM178.157,271.148C183.778,261.297 193.141,252.132 198.897,246.624C200.205,245.372 201.32,244.334 202.134,243.536C199.031,242.641 194.811,241.306 191.121,239.659C188.638,238.552 186.396,237.283 184.828,235.929C182.278,242.362 179.488,250.234 178.277,258.015C177.574,262.531 177.4,267.016 178.157,271.148ZM87.684,182.694C77.394,173.07 71.405,160.945 75.885,144.762C77.004,140.717 78.326,136.8 80.597,133.458C80.853,133.081 81.367,132.493 81.809,131.873C81.983,131.628 82.198,131.214 82.272,131.068C82.245,131.014 82.2,130.963 82.161,130.899C81.998,130.637 81.775,130.373 81.527,130.109C80.605,129.125 79.372,128.192 78.83,127.659C75.036,123.921 72.637,119.12 70.066,114.142L70.066,187.555C73.169,186.755 77.269,186.545 79.736,186.021C82.451,185.444 84.915,183.856 87.684,182.694ZM134.746,143.171C139.787,144.877 144.193,146.3 148.57,149.138C149.062,149.457 150.01,150.278 150.888,150.818C151.142,150.974 151.542,151.129 151.643,151.168C151.894,151.049 152.118,150.732 152.374,150.338C153.022,149.341 153.654,147.822 154.266,146.016C156.784,138.589 158.837,126.458 158.973,123.341C159.091,120.642 158.527,118.061 158.196,115.261C152.486,125.776 144.662,134.001 137.102,141.45C136.479,142.064 135.611,142.579 134.746,143.171ZM178.161,114.855C176.507,124.738 178.861,133.823 181.355,140.858C182.89,145.191 184.478,148.787 185.324,151.37C190.482,147.734 195.646,144.569 201.33,142.531C199.732,141.012 198.135,139.807 196.709,138.402C190.091,131.881 184.863,124.732 179.481,116.811C179.104,116.256 178.633,115.585 178.161,114.855ZM249.574,182.823C253.998,185.574 262.018,187.384 266.824,187.631C267.338,177.899 267.197,131.62 266.697,115.2C264.294,119.802 261.348,123.592 258.423,127.113C257.857,127.796 256.925,128.554 256.083,129.38C255.572,129.881 255.063,130.372 254.85,130.94C255.664,133.302 259.921,141.862 260.457,143.797C264.141,157.108 261.041,171.565 251.973,180.5C251.339,181.124 250.528,182.082 249.574,182.823ZM147.182,158.429C147.13,158.337 147.02,158.15 146.925,158.032C146.683,157.732 146.364,157.425 145.997,157.112C143.561,155.043 139.142,152.891 138.01,152.436C136.415,151.796 134.654,151.767 132.8,151.376C133.417,154.561 134.538,158.817 135.846,162.516C136.685,164.888 137.588,167.033 138.495,168.464C140.332,166.776 143.557,163.516 145.601,160.884C146.178,160.142 146.658,159.456 146.966,158.878C147.058,158.706 147.139,158.559 147.182,158.429ZM133.073,173.917C132.51,171.921 129.593,166.277 129.211,164.895C128.347,161.774 127.928,157.944 126.87,154.542C126.106,155.768 125.06,157.262 123.837,158.888C118.909,165.441 111.137,174.385 109.035,176.456C107.557,177.913 105.465,179.176 103.634,180.71C110.707,181.879 121.293,179.962 127.872,177.231C129.693,176.475 131.199,175.664 132.209,174.825C132.587,174.51 132.893,174.22 133.073,173.917ZM224.946,291.087C225.114,291.708 225.559,292.365 226.057,293.036C227.146,294.506 228.582,295.926 229.355,296.857C240.718,310.54 251.287,311.643 266.977,311.687C266.967,295.915 266.671,283.802 258.292,271.47C256.947,269.49 255.659,267.211 253.994,265.57C252.661,264.256 250.562,263.141 248.948,261.641C243.18,265.452 238.634,269.103 231.924,269.475C231.766,273.943 230.84,278.338 229.354,281.66C228.857,282.772 225.627,289.198 224.946,291.087ZM70.164,271.091C70.935,269.611 71.841,268.175 72.822,266.798C76.05,262.267 80.091,258.362 82.495,255.531C79.718,250.013 77.013,245.745 75.408,239.947C73.843,234.29 74.559,225.989 76.996,218.513C78.999,212.366 82.161,206.809 86.055,203.669C85.001,203.283 83.977,202.867 82.854,202.45C82.623,202.364 82.42,202.193 82.274,201.961C82.141,201.748 82.061,201.583 82.01,201.455L81.985,201.352C77.938,200.341 74.388,198.582 70.209,198.32C69.404,210.518 70.314,251.317 70.179,269.589C70.175,270.107 70.17,270.608 70.164,271.091ZM235.446,311.991C234.617,311.461 233.928,311.103 233.245,310.724C231.079,309.523 228.959,308.159 223.211,301.237C222.679,300.596 221.789,299.101 220.894,297.978C220.652,297.674 220.412,297.4 220.179,297.2C220.131,297.158 220.089,297.114 220.048,297.079C219.754,297.259 218.921,297.777 218.223,298.291C215.328,300.423 210.818,304.105 209.232,304.742C198.069,309.223 186.488,305.607 178.98,294.556C178.439,293.761 177.713,292.811 177.031,291.78C174.894,299.714 173.995,303.31 172.767,311.991L235.446,311.991ZM87.011,125.198L87.039,125.181C89.092,123.906 98.571,117.851 104.616,117.117C104.827,110.94 106.508,105.762 108.666,100.936C109.113,99.937 110.315,98.476 111.191,97.078C111.421,96.71 111.625,96.349 111.763,96.004C111.83,95.837 111.898,95.689 111.889,95.546C111.849,94.918 111.41,94.197 110.913,93.442C109.947,91.976 108.632,90.528 107.939,89.693C96.759,76.23 85.574,74.631 70.067,74.562C70.09,92.865 70.707,108.765 82.798,120.678C83.597,121.465 84.642,123.02 85.741,124.177C86.171,124.629 86.59,125.045 87.011,125.198ZM143.392,174.337C143.427,174.416 143.464,174.496 143.502,174.569C143.845,175.23 144.382,176.06 145.035,176.987C147.541,180.544 151.711,185.428 153.695,187.437C155.255,185.336 157.093,183.557 158.901,181.755C160.587,180.075 162.247,178.377 163.573,176.314C161.567,174.208 159.85,171.716 158.108,169.263C156.477,166.966 154.825,164.703 152.841,162.891C149.909,167.282 146.532,170.502 143.392,174.337ZM197.828,217.715C196.228,218.843 194.711,220.948 193.264,223.138C191.941,225.139 190.684,227.223 189.515,228.859C194.136,232.05 198.74,234.514 203.88,235.849C203.103,232.331 202.251,228.154 201.028,224.419C200.179,221.826 199.159,219.446 197.828,217.715ZM193.412,174.886C193.101,174.436 192.466,173.537 191.793,172.712C189.335,169.7 185.356,165.339 183.549,163.336C180.38,165.959 175.136,172.608 172.867,176.291C175.138,179.358 179.999,184.927 182.665,187.331C184.617,185.491 189.054,180.76 191.71,177.378C192.408,176.489 193.108,175.381 193.412,174.886ZM233.857,75.235C228.763,75.262 222.599,74.56 219.024,74.559C203.378,74.853 188.328,74.861 172.828,74.861C173.039,82.438 174.953,88.316 177.092,94.709C183.709,82.072 197.336,77.033 208.48,81.506C210.764,82.423 217.978,87.983 220.119,89.644C220.198,89.538 220.282,89.421 220.338,89.328C220.597,88.898 220.842,88.467 221.081,88.179C225.13,83.303 228.924,78.663 233.857,75.235ZM243.545,256.175C236.289,250.615 221.969,247.256 213.218,246.903C214.376,253.512 214.592,263.034 216.653,270.482C217.774,274.531 219.361,278.352 220.864,282.389C222.878,277.929 223.855,276.881 224.313,275.352C224.84,273.599 224.627,271.207 224.627,262.08C224.627,261.312 225.144,260.689 225.782,260.689C229.198,260.689 233.814,260.578 237.853,259.344C240.029,258.679 242.038,257.696 243.545,256.175ZM241.923,208.628C234.129,213.013 223.933,225.536 218.907,232.934C217.706,234.701 216.595,236.93 215.276,238.985C227.524,240.795 235.147,241.976 246.621,248.886C246.987,249.106 247.376,249.167 247.788,249.296C248.148,249.409 248.522,249.55 248.913,249.774C249.96,248.395 250.72,246.663 251.384,245.465C256.14,236.873 255.578,226.452 251.98,218.768C249.68,213.857 246.137,210.054 241.923,208.628ZM224.794,95.216C225.979,97.634 231.341,108.969 231.901,117.369C238.875,117.661 244.099,120.708 249.657,125.074C250.4,124.185 251.208,123.434 251.998,122.712C252.905,121.884 253.788,121.105 254.458,120.119C266.11,102.969 266.947,96.854 266.976,74.559L263.63,74.559C246.92,74.855 241.722,77.38 229.62,89.303C228.766,90.145 227.149,91.634 225.956,93.209C225.434,93.898 224.967,94.574 224.794,95.216ZM116.031,103.033C114.886,104.861 114.022,107.358 113.393,110.046C112.201,115.141 111.884,120.94 112.399,124.536C112.461,124.967 112.35,125.409 112.1,125.727C111.851,126.045 111.491,126.203 111.13,126.154C104.875,125.291 98.71,126.072 93.866,130.672C98.614,134.242 104.843,135.981 110.551,137.066C115.688,138.043 120.427,138.501 123.438,139.172C121.739,130.277 122.694,121.951 116.966,105.855C116.766,105.295 116.561,104.441 116.259,103.61C116.188,103.416 116.114,103.22 116.031,103.033ZM189.348,157.903L189.362,157.935C189.631,158.518 190.033,159.197 190.515,159.929C192.468,162.892 195.713,166.657 197.588,168.538C199.226,165.028 201.161,162.094 202.133,158.584C202.754,156.34 202.963,153.57 203.372,151.005C199.048,152.654 195.206,153.919 191.497,156.325C190.869,156.732 190.191,157.399 189.348,157.903ZM158.172,271.9C159.827,260.231 157.445,248.949 153.046,239.11C152.784,238.526 152.448,237.499 151.981,236.551C151.744,236.069 151.49,235.577 151.159,235.279C147.736,237.666 144.86,240.009 141.547,241.339C139.581,242.128 137.222,242.657 134.929,243.522C142.348,250.502 149.132,257.431 154.931,265.967C156.075,267.651 156.983,269.886 158.172,271.9ZM102.788,311.991L163.773,311.991C162.741,304.448 162.059,297.657 159.574,290.827C158.594,292.637 157.423,294.056 156.51,295.401C149.451,305.791 138.1,309.194 127.61,304.983C125.907,304.3 118.598,298.742 116.37,297.374C116.085,297.672 115.59,298.204 115.19,298.704C113.13,301.279 110.145,305.592 109.11,306.611C107.184,308.51 105.11,310.413 102.788,311.991ZM87.142,261.469C72.128,273.068 70.17,292.066 70.07,311.652C73.186,311.049 77.403,311.39 82.166,311.138C90.087,310.718 99.607,308.506 107.861,296.356C108.517,295.392 109.864,294.043 110.873,292.656C111.356,291.992 111.794,291.36 111.84,290.743C111.846,290.669 111.804,290.593 111.774,290.503C111.689,290.253 111.561,289.988 111.416,289.719C110.855,288.679 110.054,287.605 109.699,286.963C107.038,282.156 105.113,276.156 104.87,269.778C99.475,269.494 96.076,267.191 92.949,264.936C91.058,263.572 89.28,262.219 87.142,261.469ZM225.319,205.228L225.312,205.228C222.567,205.453 213.153,207.459 207.524,210.162C206.382,210.71 205.403,211.281 204.691,211.879C204.237,212.26 203.872,212.568 203.816,212.968C203.8,213.084 203.84,213.206 203.877,213.337C203.958,213.622 204.086,213.914 204.227,214.202C204.599,214.963 205.053,215.697 205.298,216.245C207.522,221.219 209.005,226.732 210.758,232.234C214.247,226.36 221.499,216.746 227.673,210.21C229.448,208.331 231.14,206.707 232.636,205.481C230.216,205.175 227.88,205.227 225.319,205.228ZM134.364,88.441L134.359,88.441C132.216,88.683 126.096,91.548 122.662,94.334C121.978,94.888 121.406,95.433 121.017,95.959C120.899,96.117 120.801,96.271 120.729,96.422C120.698,96.489 120.653,96.54 120.657,96.6C120.696,97.219 121.285,98.48 121.949,99.951C123.136,102.58 124.665,105.699 125.112,107.312C127.555,116.138 130.048,126.208 130.413,136.192C139.618,129.165 148.026,119.953 153.02,108.783C153.385,107.967 154.002,107.08 154.548,106.165C154.929,105.525 155.304,104.887 155.341,104.219C155.388,103.371 155.17,102.449 154.773,101.489C154.08,99.814 152.847,98.065 151.257,96.405C147.149,92.116 140.668,88.459 134.364,88.441ZM83.97,201.451L83.961,201.47L83.973,201.452L83.97,201.451ZM239.815,73.209L239.815,73.169L239.811,73.17L239.815,73.209Z" style="fill:rgb(142,56,230);"/>
            </g>
        </g>
    </g>
</svg>
